<ttFont>
          <CharString index="0">
            -53 24 -97 callgsubr
            return
          </CharString>
          <CharString index="1">
            vlineto
            -53 24 -24 53 vhcurveto
            305 59 -183 -94 callgsubr
            -208 166 208 -102 callgsubr
            return
          </CharString>
          <CharString index="2">
            128 callgsubr
            -29 vhcurveto
            -400 283 callgsubr
            222 vlineto
            -74 callgsubr
            144 210 callgsubr
            return
          </CharString>
          <CharString index="3">
            -331 -106 callsubr
            return
          </CharString>
          <CharString index="4">
            vlineto
            -100 callsubr
            return
          </CharString>
          <CharString index="5">
            hlineto
            -103 callgsubr
            return
          </CharString>
          <CharString index="6">
            -101 callgsubr
            189 return
          </CharString>
          <CharString index="7">
            25 -92 callsubr
            return
          </CharString>
          <CharString index="8">
            -102 callsubr
            303 -103 callsubr
            return
          </CharString>
          <CharString index="9">
            -31 callgsubr
            -151 -107 callgsubr
            135 59 return
          </CharString>
          <CharString index="10">
            -253 -93 callgsubr
            return
          </CharString>
          <CharString index="11">
            166 392 vlineto
            26 8 8 244 callsubr
            -225 -85 callgsubr
            -142 -59 264 17 callgsubr
            -43 callgsubr
            -278 -35 callsubr
          </CharString>
          <CharString index="12">
            25 -80 callsubr
            return
          </CharString>
          <CharString index="13">
            -92 callgsubr
            166 563 return
          </CharString>
          <CharString index="14">
            -91 callsubr
            -87 return
          </CharString>
          <CharString index="15">
            6 -88 callsubr
            return
          </CharString>
          <CharString index="16">
            hlineto
            -91 callgsubr
            return
          </CharString>
          <CharString index="17">
            -331 -87 callgsubr
            return
          </CharString>
          <CharString index="18">
            -97 callgsubr
            -85 callsubr
            return
          </CharString>
          <CharString index="19">
            7 26 vhcurveto
            return
          </CharString>
          <CharString index="20">
            67 callsubr
            -330 -56 callsubr
            return
          </CharString>
          <CharString index="21">
            hlineto
            -82 callsubr
            return
          </CharString>
          <CharString index="22">
            275 -73 callgsubr
            return
          </CharString>
          <CharString index="23">
            1 6 0 6 6 vvcurveto
            -40 callgsubr
            return
          </CharString>
          <CharString index="24">
            -58 callgsubr
            -110 vlineto
            -53 24 -24 53 vhcurveto
            return
          </CharString>
          <CharString index="25">
            -103 callgsubr
            225 -103 callsubr
            return
          </CharString>
          <CharString index="26">
            -7 -26 vhcurveto
            return
          </CharString>
          <CharString index="27">
            7 -88 callsubr
            return
          </CharString>
          <CharString index="28">
            -59 -76 callsubr
            return
          </CharString>
          <CharString index="29">
            -24 -53 hvcurveto
            return
          </CharString>
          <CharString index="30">
            167 -70 callgsubr
          </CharString>
          <CharString index="31">
            122 -59 callgsubr
            return
          </CharString>
          <CharString index="32">
            vlineto
            -63 callgsubr
            return
          </CharString>
          <CharString index="33">
            -6 -81 callsubr
            return
          </CharString>
          <CharString index="34">
            -85 callsubr
            152 -47 callsubr
            -225 -85 callgsubr
            -136 -59 244 callgsubr
            -43 callgsubr
            -276 -35 callsubr
          </CharString>
          <CharString index="35">
            -15 callgsubr
            360 176 callsubr
            -150 -59 -14 callgsubr
            -152 321 callsubr
            366 129 callsubr
          </CharString>
          <CharString index="36">
            509 254 callsubr
            240 callgsubr
            436 -38 callgsubr
            408 return
          </CharString>
          <CharString index="37">
            -63 callsubr
            -164 hlineto
            -26 -7 -96 callgsubr
            316 return
          </CharString>
          <CharString index="38">
            vlineto
            -53 24 -24 53 vhcurveto
            -73 callsubr
          </CharString>
          <CharString index="39">
            -103 callgsubr
            166 16 callsubr
            -198 hlineto
            -63 callsubr
            return
          </CharString>
          <CharString index="40">
            -105 callgsubr
            416 85 callgsubr
            -166 9 callsubr
            303 298 callsubr
          </CharString>
          <CharString index="41">
            -316 hlineto
            -87 callsubr
            return
          </CharString>
          <CharString index="42">
            rmoveto
            -26 -8 -8 -46 callsubr
            return
          </CharString>
          <CharString index="43">
            32 callsubr
            -154 -68 callgsubr
            100 -161 -111 115 callgsubr
            185 -57 callgsubr
            -269 -68 callgsubr
            158 -45 callsubr
            153 -59 callsubr
            -100 161 111 -57 callgsubr
            -380 116 callgsubr
            270 -59 callsubr
            return
          </CharString>
          <CharString index="44">
            -25 -74 callsubr
            return
          </CharString>
          <CharString index="45">
            32 callsubr
            -115 -68 callgsubr
            56 -151 -66 -75 callsubr
            324 -54 callsubr
            113 -57 callgsubr
            -221 -68 callgsubr
            94 -45 callsubr
            113 272 callgsubr
            150 66 -57 callgsubr
            -321 43 callgsubr
            -115 -75 callsubr
            221 -59 callsubr
            return
          </CharString>
          <CharString index="46">
            vlineto
            -25 44 callgsubr
            return
          </CharString>
          <CharString index="47">
            -65 callsubr
            394 238 vlineto
            return
          </CharString>
          <CharString index="48">
            hlineto
            -36 callsubr
            return
          </CharString>
          <CharString index="49">
            139 callsubr
            10 10 4 callsubr
            return
          </CharString>
          <CharString index="50">
            19 callgsubr
            140 vlineto
            25 6 -29 callgsubr
            return
          </CharString>
          <CharString index="51">
            -105 callgsubr
            -23 callsubr
            return
          </CharString>
          <CharString index="52">
            525 -39 callsubr
            return
          </CharString>
          <CharString index="53">
            hlineto
            53 26 26 53 hvcurveto
            return
          </CharString>
          <CharString index="54">
            -95 callgsubr
            271 return
          </CharString>
          <CharString index="55">
            10 6 5 12 21 vvcurveto
            145 305 callgsubr
            -367 hlineto
            -53 -24 -23 -53 hvcurveto
            -145 vlineto
            -21 5 -12 10 -6 vhcurveto
            -1 hlineto
            -54 -21 -29 -50 hvcurveto
            -127 -14 callsubr
            306 150 callgsubr
            225 -167 -51 262 callsubr
            -181 10 callsubr
            101 -5 callsubr
            return
          </CharString>
          <CharString index="56">
            vlineto
            -55 callgsubr
            return
          </CharString>
          <CharString index="57">
            rmoveto
            119 342 119 -342 rlineto
            63 -182 rmoveto
            159 hlineto
            -239 622 rlineto
            -204 hlineto
            -238 -622 rlineto
            157 hlineto
            43 123 rlineto
            279 hlineto
            endchar
          </CharString>
          <CharString index="58">
            -96 callgsubr
            138 258 vlineto
            68 callgsubr
            506 -348 vlineto
            -27 -10 -10 -27 vhcurveto
            -172 -11 callgsubr
            281 37 callsubr
            -131 112 callgsubr
          </CharString>
          <CharString index="59">
            -26 -5 -5 -26 vhcurveto
            return
          </CharString>
          <CharString index="60">
            hlineto
            26 6 -34 callsubr
            return
          </CharString>
          <CharString index="61">
            -26 -39 callgsubr
            return
          </CharString>
          <CharString index="62">
            vlineto
            -26 callgsubr
            return
          </CharString>
          <CharString index="63">
            -56 callgsubr
            -160 vlineto
            -25 -6 return
          </CharString>
          <CharString index="64">
            -53 -26 -26 -53 hvcurveto
            return
          </CharString>
          <CharString index="65">
            171 -60 callsubr
            return
          </CharString>
          <CharString index="66">
            hlineto
            -21 callgsubr
            return
          </CharString>
          <CharString index="67">
            -103 callgsubr
            98 vlineto
            26 6 7 26 vhcurveto
            133 59 -133 -57 callsubr
            return
          </CharString>
          <CharString index="68">
            hlineto
            16 12 3 9 7 hvcurveto
            return
          </CharString>
          <CharString index="69">
            -53 23 -97 callgsubr
            506 59 -383 hlineto
            -26 -6 -49 callsubr
          </CharString>
          <CharString index="70">
            -78 callgsubr
            271 167 -34 callgsubr
          </CharString>
          <CharString index="71">
            26 -13 callsubr
            return
          </CharString>
          <CharString index="72">
            hlineto
            -67 callgsubr
            vlineto
            endchar
          </CharString>
          <CharString index="73">
            -7 -25 hvcurveto
            return
          </CharString>
          <CharString index="74">
            hlineto
            72 callgsubr
            return
          </CharString>
          <CharString index="75">
            53 23 -78 callgsubr
            return
          </CharString>
          <CharString index="76">
            -93 callsubr
            166 return
          </CharString>
          <CharString index="77">
            -175 -27 callsubr
            285 hlineto
            return
          </CharString>
          <CharString index="78">
            hlineto
            -66 callgsubr
            return
          </CharString>
          <CharString index="79">
            53 -24 -2 callsubr
            return
          </CharString>
          <CharString index="80">
            hlineto
            -26 -6 7 25 hvcurveto
            164 -41 callgsubr
            -192 vlineto
            -53 24 -24 53 vhcurveto
            return
          </CharString>
          <CharString index="81">
            53 -23 -2 callsubr
            -316 -59 194 -47 callsubr
            -225 313 callsubr
            100 -167 -114 -105 callgsubr
            414 -38 callgsubr
            return
          </CharString>
          <CharString index="82">
            vlineto
            -2 callgsubr
            return
          </CharString>
          <CharString index="83">
            167 211 callsubr
            return
          </CharString>
          <CharString index="84">
            398 -53 callsubr
            return
          </CharString>
          <CharString index="85">
            -103 callgsubr
            103 71 callgsubr
            312 316 callgsubr
            -5 315 callsubr
            return
          </CharString>
          <CharString index="86">
            -14 callsubr
            496 59 -374 199 callsubr
            -5 callsubr
            185 hlineto
            26 7 -8 -24 hvcurveto
            -91 158 100 vlineto
            56 -29 26 -57 vhcurveto
            -290 10 callsubr
            38 -102 callgsubr
            endchar
          </CharString>
          <CharString index="87">
            37 callgsubr
            201 callsubr
            return
          </CharString>
          <CharString index="88">
            -58 callsubr
            -20 callsubr
            return
          </CharString>
          <CharString index="89">
            -34 callsubr
            -73 166 86 vlineto
            53 return
          </CharString>
          <CharString index="90">
            rmoveto
            176 151 rlineto
            -155 hlineto
            -97 -93 -97 93 rlineto
            -154 hlineto
            175 -151 rlineto
            return
          </CharString>
          <CharString index="91">
            rmoveto
            -394 184 callsubr
            -135 -68 callgsubr
            395 -154 -406 83 callgsubr
            -33 154 485 vlineto
            endchar
          </CharString>
          <CharString index="92">
            301 -93 callsubr
            return
          </CharString>
          <CharString index="93">
            vlineto
            11 callgsubr
            return
          </CharString>
          <CharString index="94">
            5 -5 -26 hvcurveto
            return
          </CharString>
          <CharString index="95">
            41 96 -77 71 hhcurveto
            49 hlineto
            54 20 28 50 hvcurveto
            62 -125 -55 vlineto
            -16 -6 -6 -14 vhcurveto
            -40 -98 77 -70 hhcurveto
            -47 hlineto
            -54 -22 -27 -51 hvcurveto
            -62 126 return
          </CharString>
          <CharString index="96">
            -26 vhcurveto
            -177 -86 callsubr
            161 59 return
          </CharString>
          <CharString index="97">
            rmoveto
            -25 -6 26 callgsubr
            201 hlineto
            return
          </CharString>
          <CharString index="98">
            hlineto
            -4 callgsubr
            return
          </CharString>
          <CharString index="99">
            -107 callsubr
            14 callsubr
          </CharString>
          <CharString index="100">
            -59 445 -243 -85 callgsubr
            -139 168 348 callgsubr
            506 59 -383 -102 callsubr
            920 531 245 callsubr
            -97 166 83 vlineto
            25 7 187 callgsubr
            -192 49 -167 -173 hlineto
            152 callsubr
            11 234 callgsubr
            -46 -14 callsubr
            399 -95 callgsubr
            121 -167 -107 -85 callgsubr
            -155 hlineto
            -26 -7 -96 callgsubr
            174 314 vlineto
            53 24 338 callsubr
            -24 24 -53 vhcurveto
            544 276 callgsubr
            112 callsubr
          </CharString>
          <CharString index="101">
            76 callsubr
            222 172 callsubr
            184 hlineto
            294 callgsubr
            return
          </CharString>
          <CharString index="102">
            vlineto
            19 callsubr
            return
          </CharString>
          <CharString index="103">
            291 -93 callsubr
            167 266 -167 -95 vlineto
            8 callgsubr
            return
          </CharString>
          <CharString index="104">
            vlineto
            -8 callsubr
          </CharString>
          <CharString index="105">
            24 -53 vhcurveto
            return
          </CharString>
          <CharString index="106">
            rmoveto
            -66 callgsubr
            return
          </CharString>
          <CharString index="107">
            -213 hlineto
            -107 callsubr
            return
          </CharString>
          <CharString index="108">
            -53 -25 -78 callsubr
            return
          </CharString>
          <CharString index="109">
            -316 hlineto
            -70 callsubr
            return
          </CharString>
          <CharString index="110">
            vlineto
            -104 callgsubr
            return
          </CharString>
          <CharString index="111">
            hvcurveto
            -10 13 18 -5 24 hhcurveto
            return
          </CharString>
          <CharString index="112">
            126 callgsubr
            -101 166 87 vlineto
            25 7 161 callgsubr
            return
          </CharString>
          <CharString index="113">
            -60 callsubr
            -572 -100 176 callgsubr
            204 -100 vlineto
            -576 -326 -10 callgsubr
            1453 426 rmoveto
            59 -1927 205 callgsubr
            170 -249 hlineto
            -107 callsubr
            291 hlineto
            14 11 3 6 7 hvcurveto
            -87 -96 callsubr
          </CharString>
          <CharString index="114">
            37 12 5 26 vhcurveto
            51 58 -68 hlineto
            -52 -28 -27 -49 hvcurveto
            -13 vlineto
            -43 7 -45 0 vhcurveto
            0 -14 65 -14 49 vhcurveto
            -19 63 rlineto
            -106 hlineto
            33 -72 24 -50 21 -41 27 -48 rlinecurve
            -6 hlineto
            -33 49 -31 44 -50 56 -56 62 rcurveline
            -168 hlineto
            156 -142 return
          </CharString>
          <CharString index="115">
            rmoveto
            50 hlineto
            108 141 rlineto
            62 -158 vlineto
            return
          </CharString>
          <CharString index="116">
            -153 vlineto
            -25 -7 230 callsubr
            return
          </CharString>
          <CharString index="117">
            hlineto
            -26 -7 6 26 hvcurveto
            return
          </CharString>
          <CharString index="118">
            rmoveto
            -780 -59 465 hlineto
            -56 callgsubr
            -155 -85 callgsubr
            -191 88 -167 -355 hlineto
            -107 callsubr
            395 hlineto
            53 24 158 callsubr
            194 313 vlineto
            -74 callgsubr
            168 -84 callgsubr
            129 hlineto
            endchar
          </CharString>
          <CharString index="119">
            -26 -5 5 26 hvcurveto
            305 -45 callsubr
            return
          </CharString>
          <CharString index="120">
            335 callsubr
            189 572 -280 167 82 callgsubr
          </CharString>
          <CharString index="121">
            96 callsubr
            176 -426 112 callgsubr
          </CharString>
          <CharString index="122">
            -349 hlineto
            3 callgsubr
            137 return
          </CharString>
          <CharString index="123">
            -103 callsubr
            237 return
          </CharString>
          <CharString index="124">
            -21 callgsubr
            -51 -61 callsubr
            -256 -156 hlineto
            49 callsubr
          </CharString>
          <CharString index="125">
            hlineto
            -100 callsubr
            return
          </CharString>
          <CharString index="126">
            26 7 40 callsubr
            return
          </CharString>
          <CharString index="127">
            174 308 callgsubr
            140 222 vlineto
            -74 callgsubr
            144 210 callgsubr
            return
          </CharString>
          <CharString index="128">
            vlineto
            -40 19 -19 38 264 callgsubr
            -19 -17 -42 vvcurveto
            return
          </CharString>
          <CharString index="129">
            -24 131 callgsubr
            return
          </CharString>
          <CharString index="130">
            139 callsubr
            11 11 hvcurveto
            -11 12 19 -5 24 hhcurveto
            return
          </CharString>
          <CharString index="131">
            -31 callsubr
            563 123 vlineto
            endchar
          </CharString>
          <CharString index="132">
            rmoveto
            -24 -7 46 callgsubr
            -169 hlineto
            -26 -7 8 24 hvcurveto
            112 -102 callgsubr
            202 hlineto
            return
          </CharString>
          <CharString index="133">
            -67 200 callsubr
            276 hlineto
            -56 callgsubr
            -62 201 callgsubr
            -192 57 -173 -194 173 78 314 -95 callgsubr
            91 305 callgsubr
            return
          </CharString>
          <CharString index="134">
            811 281 callgsubr
            -150 -107 callgsubr
            150 -41 callsubr
            -357 -225 rmoveto
            -25 44 callgsubr
            -151 -86 callsubr
            151 hlineto
            26 7 -7 -25 hvcurveto
            131 91 rmoveto
            -40 -16 -16 -36 -2 175 callsubr
            -302 -82 callgsubr
            302 hlineto
            43 18 15 37 3 hvcurveto
            5 hlineto
            -36 2 16 -16 40 hhcurveto
            308 17 callgsubr
            -43 callgsubr
            return
          </CharString>
          <CharString index="135">
            195 callgsubr
            226 -198 hlineto
            -25 44 callgsubr
            -465 426 rmoveto
            498 -137 -335 hlineto
            -53 -24 -24 -53 hvcurveto
            -194 143 callgsubr
            408 90 59 -754 vlineto
            return
          </CharString>
          <CharString index="136">
            -43 callgsubr
            -381 -19 callgsubr
            return
          </CharString>
          <CharString index="137">
            -103 callgsubr
            225 77 callgsubr
            150 callsubr
            return
          </CharString>
          <CharString index="138">
            291 24 callsubr
          </CharString>
          <CharString index="139">
            rmoveto
            -48 callsubr
            return
          </CharString>
          <CharString index="140">
            57 callsubr
            11 11 hvcurveto
            -11 12 19 -5 24 hhcurveto
            return
          </CharString>
          <CharString index="141">
            -83 callgsubr
            -198 186 callgsubr
            return
          </CharString>
          <CharString index="142">
            22 callsubr
            -414 -102 callsubr
            98 107 callgsubr
            132 59 -132 -57 callsubr
            -60 -647 -65 callgsubr
            168 -37 72 callsubr
            540 139 callsubr
            return
          </CharString>
          <CharString index="143">
            97 -93 rlineto
            155 hlineto
            -176 152 rlineto
            -152 hlineto
            return
          </CharString>
          <CharString index="144">
            hlineto
            16 11 3 8 7 hvcurveto
            return
          </CharString>
          <CharString index="145">
            rmoveto
            206 -59 callsubr
            -219 -14 callgsubr
            -206 hlineto
            243 -282 rmoveto
            168 hlineto
            -141 223 rlineto
            49 -54 callsubr
            241 -57 callgsubr
            -481 -622 162 223 109 hlineto
            endchar
          </CharString>
          <CharString index="146">
            202 callgsubr
            563 return
          </CharString>
          <CharString index="147">
            6 26 vhcurveto
            return
          </CharString>
          <CharString index="148">
            -103 callgsubr
            95 144 callgsubr
            7 26 hvcurveto
            127 239 callsubr
            -96 140 110 21 callgsubr
            return
          </CharString>
          <CharString index="149">
            rmoveto
            168 callgsubr
            -134 hlineto
            -26 -8 6 26 hvcurveto
            137 -5 callsubr
            135 43 callsubr
            return
          </CharString>
          <CharString index="150">
            hlineto
            26 7 -6 -26 hvcurveto
            return
          </CharString>
          <CharString index="151">
            214 callgsubr
            -86 167 73 -103 callsubr
            144 60 callsubr
            return
          </CharString>
          <CharString index="152">
            -36 callgsubr
            291 hlineto
            return
          </CharString>
          <CharString index="153">
            102 callgsubr
            153 hlineto
            -119 -163 rlineto
            173 hlineto
            116 173 rlineto
            -103 167 266 -167 -80 177 callgsubr
            -6 7 25 hvcurveto
            210 298 callsubr
          </CharString>
          <CharString index="154">
            -59 503 -111 -340 -19 callgsubr
            -193 143 callgsubr
            return
          </CharString>
          <CharString index="155">
            -329 2 callsubr
            return
          </CharString>
          <CharString index="156">
            -107 callsubr
            515 150 callgsubr
            563 122 vlineto
            endchar
          </CharString>
          <CharString index="157">
            -64 callsubr
            endchar
          </CharString>
          <CharString index="158">
            339 rmoveto
            -180 hlineto
            -84 callsubr
            192 hlineto
            -346 209 callsubr
            return
          </CharString>
          <CharString index="159">
            -102 callgsubr
            148 -41 callsubr
            return
          </CharString>
          <CharString index="160">
            656 943 393 rmoveto
            25 6 8 26 vhcurveto
            127 hlineto
            26 6 -8 -25 hvcurveto
            -103 vlineto
            -24 -8 -8 -20 vhcurveto
            -133 hlineto
            -22 -8 9 23 hvcurveto
            -269 273 rmoveto
            714 59 -1408 -59 528 -305 -48 hlineto
            -130 158 rlineto
            59 -50 -41 10 -85 hhcurveto
            -121 -61 25 hlineto
            51 37 -7 -48 41 hvcurveto
            110 -134 -248 -235 rlineto
            194 hlineto
            208 198 rlineto
            57 -198 166 198 return
          </CharString>
          <CharString index="161">
            hlineto
            -91 -163 rlineto
            159 hlineto
            71 149 70 -149 rlineto
            160 hlineto
            -91 163 rlineto
            return
          </CharString>
          <CharString index="162">
            -28 callsubr
            -399 -19 callgsubr
            -60 -179 78 59 59 -723 -59 497 4 callgsubr
            346 105 183 callgsubr
            -160 -313 149 callgsubr
            return
          </CharString>
          <CharString index="163">
            311 callsubr
            269 169 rmoveto
            59 -806 -59 319 261 callgsubr
            return
          </CharString>
          <CharString index="164">
            157 callgsubr
            25 17 5 return
          </CharString>
          <CharString index="165">
            -102 callsubr
            128 296 246 callsubr
            -650 192 callgsubr
            142 114 callsubr
            -343 126 callsubr
            return
          </CharString>
          <CharString index="166">
            485 rmoveto
            198 -485 rlineto
            58 hlineto
            -17 -37 rlineto
            -32 -14 -21 -13 -46 hhcurveto
            -66 -59 117 hlineto
            109 30 41 73 28 hvcurveto
            211 512 rlineto
            -155 hlineto
            -136 -384 -136 384 rlineto
            return
          </CharString>
          <CharString index="167">
            -47 callsubr
            -120 -122 -79 callsubr
            return
          </CharString>
          <CharString index="168">
            177 callsubr
            133 59 -781 146 callgsubr
            138 hlineto
            -120 -163 rlineto
            172 hlineto
            117 173 rlineto
            -97 167 -50 callgsubr
            267 59 hlineto
            endchar
          </CharString>
          <CharString index="169">
            rmoveto
            122 -165 294 callsubr
            -124 165 rlineto
            return
          </CharString>
          <CharString index="170">
            290 rmoveto
            40 -18 20 -39 vhcurveto
            -282 hlineto
            -38 -19 -20 -40 hvcurveto
            -229 vlineto
            -41 19 -19 38 337 callsubr
            41 hvcurveto
            -120 13 rmoveto
            -20 -3 -4 -20 vhcurveto
            -109 143 callsubr
            109 hlineto
            20 3 -4 -20 hvcurveto
            -242 346 rmoveto
            -468 -622 rlineto
            124 hlineto
            469 622 rlineto
            -432 -60 rmoveto
            40 -18 19 return
          </CharString>
          <CharString index="171">
            -59 1189 hlineto
            27 callgsubr
            -832 -60 callgsubr
            186 84 callsubr
            return
          </CharString>
          <CharString index="172">
            7 callgsubr
            394 return
          </CharString>
          <CharString index="173">
            7 callgsubr
            165 16 callsubr
            -197 hlineto
            -63 callsubr
            return
          </CharString>
          <CharString index="174">
            -70 callsubr
            -161 return
          </CharString>
          <CharString index="175">
            353 1085 2 callgsubr
            -1105 -59 466 hlineto
            -56 callgsubr
            -151 -85 callgsubr
            -191 84 -167 -355 hlineto
            -107 callsubr
            396 hlineto
            53 23 158 callsubr
            198 313 vlineto
            53 24 25 53 hvcurveto
            38 148 vlineto
            26 6 -8 -24 hvcurveto
            return
          </CharString>
          <CharString index="176">
            -102 callsubr
            98 144 callgsubr
            6 26 hvcurveto
            140 vlineto
            25 6 188 callgsubr
            7 299 callgsubr
            140 119 -43 callgsubr
            -364 -19 callgsubr
            -156 72 callsubr
            return
          </CharString>
          <CharString index="177">
            rmoveto
            132 hlineto
            169 148 rlineto
            -163 hlineto
            return
          </CharString>
          <CharString index="178">
            80 callgsubr
            -153 vlineto
            -53 25 -25 324 callsubr
            126 52 callsubr
            -294 63 callgsubr
            148 -22 callgsubr
            118 59 -118 52 callgsubr
            return
          </CharString>
          <CharString index="179">
            vlineto
            -6 callgsubr
            -110 -105 callgsubr
            return
          </CharString>
          <CharString index="180">
            -169 -105 callgsubr
            719 -95 callgsubr
            331 vlineto
            return
          </CharString>
          <CharString index="181">
            -2 callsubr
            -285 10 callsubr
            return
          </CharString>
          <CharString index="182">
            vlineto
            -53 callgsubr
            -79 -105 callgsubr
            -71 callgsubr
          </CharString>
          <CharString index="183">
            79 callsubr
            140 return
          </CharString>
          <CharString index="184">
            -532 -14 callgsubr
            -172 -68 callgsubr
            return
          </CharString>
          <CharString index="185">
            vlineto
            22 callsubr
            return
          </CharString>
          <CharString index="186">
            rmoveto
            -28 -10 -9 -28 vhcurveto
            -400 hlineto
            -26 -7 -96 callgsubr
            return
          </CharString>
          <CharString index="187">
            hlineto
            -132 137 rlineto
            51 -51 -43 8 -76 hhcurveto
            -123 -61 23 hlineto
            44 38 -4 -41 42 hvcurveto
            126 -128 -260 269 callsubr
            return
          </CharString>
          <CharString index="188">
            -107 callsubr
            -46 callgsubr
          </CharString>
          <CharString index="189">
            73 callgsubr
            166 563 return
          </CharString>
          <CharString index="190">
            rmoveto
            -26 -6 4 233 callgsubr
            5 26 vhcurveto
            139 return
          </CharString>
          <CharString index="191">
            -349 87 callgsubr
            return
          </CharString>
          <CharString index="192">
            vlineto
            88 callgsubr
            return
          </CharString>
          <CharString index="193">
            -66 145 485 -1 callsubr
            356 311 callgsubr
            -75 -90 rmoveto
            -305 -14 callgsubr
            -144 24 callgsubr
            144 -59 callsubr
            return
          </CharString>
          <CharString index="194">
            -107 callsubr
            291 -31 callsubr
            370 -25 callsubr
            return
          </CharString>
          <CharString index="195">
            173 callgsubr
            -6 7 25 hvcurveto
            128 295 vlineto
            53 return
          </CharString>
          <CharString index="196">
            252 137 rmoveto
            -68 callsubr
            -477 426 rmoveto
            205 callsubr
            59 -765 vlineto
            return
          </CharString>
          <CharString index="197">
            23 callsubr
            -46 callgsubr
          </CharString>
          <CharString index="198">
            10 219 callsubr
            193 399 rmoveto
            98 59 -762 47 callsubr
            return
          </CharString>
          <CharString index="199">
            -392 306 callgsubr
            -176 -107 callgsubr
            160 59 322 callgsubr
            return
          </CharString>
          <CharString index="200">
            hlineto
            34 callgsubr
          </CharString>
          <CharString index="201">
            -59 352 144 callsubr
            -272 return
          </CharString>
          <CharString index="202">
            158 callgsubr
            -160 -105 callgsubr
            234 hlineto
            -101 -163 rlineto
            160 hlineto
            79 149 75 -149 rlineto
            160 hlineto
            -96 163 rlineto
            208 -95 callgsubr
            322 vlineto
            return
          </CharString>
          <CharString index="203">
            403 -53 callsubr
            return
          </CharString>
          <CharString index="204">
            543 -47 callgsubr
            return
          </CharString>
          <CharString index="205">
            426 rmoveto
            137 return
          </CharString>
          <CharString index="206">
            301 160 callgsubr
          </CharString>
          <CharString index="207">
            -34 289 callgsubr
            return
          </CharString>
          <CharString index="208">
            271 callgsubr
            -144 -105 callgsubr
            return
          </CharString>
          <CharString index="209">
            hlineto
            88 callgsubr
            563 123 vlineto
            endchar
          </CharString>
          <CharString index="210">
            rmoveto
            137 126 59 -768 -59 476 -78 -295 250 callsubr
            286 hlineto
            26 6 -7 -26 hvcurveto
            -119 201 callgsubr
            -160 hlineto
            -26 -7 -96 callgsubr
            74 -167 -88 -105 callgsubr
            return
          </CharString>
          <CharString index="211">
            -426 rmoveto
            121 callgsubr
            return
          </CharString>
          <CharString index="212">
            82 callsubr
            123 vlineto
            endchar
          </CharString>
          <CharString index="213">
            38 -1 204 callsubr
            return
          </CharString>
          <CharString index="214">
            -59 487 -78 -314 -25 callgsubr
            -4 callsubr
            return
          </CharString>
          <CharString index="215">
            -95 callsubr
            141 114 callsubr
            -342 126 callsubr
            return
          </CharString>
          <CharString index="216">
            227 172 callsubr
            return
          </CharString>
          <CharString index="217">
            -78 callsubr
            -238 78 callsubr
            return
          </CharString>
          <CharString index="218">
            165 130 callgsubr
          </CharString>
          <CharString index="219">
            167 105 callgsubr
          </CharString>
          <CharString index="220">
            288 254 233 rmoveto
            244 callgsubr
            431 59 -1040 -59 445 -239 vlineto
            212 callgsubr
            return
          </CharString>
          <CharString index="221">
            -41 callsubr
            -143 -61 callsubr
            return
          </CharString>
          <CharString index="222">
            rmoveto
            -139 148 rlineto
            223 callgsubr
            return
          </CharString>
          <CharString index="223">
            -392 vlineto
            -31 callgsubr
            return
          </CharString>
          <CharString index="224">
            rmoveto
            -25 -7 -7 -26 vhcurveto
            -202 hlineto
            -26 -6 7 25 hvcurveto
            303 311 callsubr
            return
          </CharString>
          <CharString index="225">
            53 -26 26 -53 vhcurveto
            -389 -9 callsubr
            return
          </CharString>
          <CharString index="226">
            -331 -105 callgsubr
            437 -38 callgsubr
            331 1 callgsubr
            -136 78 hlineto
            endchar
          </CharString>
          <CharString index="227">
            210 callsubr
            -202 224 146 62 -146 218 202 -59 callsubr
            -395 90 rmoveto
            -277 -63 -62 63 -283 478 vlineto
            53 26 26 53 hvcurveto
            464 -57 callgsubr
            endchar
          </CharString>
          <CharString index="228">
            -105 callgsubr
            306 59 -184 -88 callgsubr
            return
          </CharString>
          <CharString index="229">
            142 callsubr
            112 302 callsubr
            -732 -143 rmoveto
            -63 callsubr
            -169 -107 callgsubr
            201 hlineto
            return
          </CharString>
          <CharString index="230">
            vlineto
            81 callsubr
          </CharString>
          <CharString index="231">
            166 -70 callgsubr
          </CharString>
          <CharString index="232">
            -53 -24 110 callsubr
            return
          </CharString>
          <CharString index="233">
            -201 hlineto
            -107 callsubr
            return
          </CharString>
          <CharString index="234">
            -23 -11 -9 -25 vhcurveto
            return
          </CharString>
          <CharString index="235">
            -53 hvcurveto
            -133 return
          </CharString>
          <CharString index="236">
            187 -57 callgsubr
            endchar
          </CharString>
          <CharString index="237">
            -161 hlineto
            -26 return
          </CharString>
          <CharString index="238">
            hlineto
            108 callsubr
            587 -45 callgsubr
          </CharString>
          <CharString index="239">
            -392 vlineto
            -98 callsubr
            return
          </CharString>
          <CharString index="240">
            -107 callsubr
            400 -95 callgsubr
            121 -167 -107 -85 callgsubr
            -156 -102 callsubr
            174 314 vlineto
            12 callgsubr
            return
          </CharString>
          <CharString index="241">
            -253 94 callgsubr
          </CharString>
          <CharString index="242">
            -105 callgsubr
            275 -93 callsubr
            167 -50 callgsubr
            return
          </CharString>
          <CharString index="243">
            550 160 callgsubr
          </CharString>
          <CharString index="244">
            rmoveto
            -534 -59 350 hlineto
            -364 -504 rlineto
            -59 538 59 -355 vlineto
            365 504 rlineto
            endchar
          </CharString>
          <CharString index="245">
            -451 306 callgsubr
            return
          </CharString>
          <CharString index="246">
            hlineto
            25 17 5 return
          </CharString>
          <CharString index="247">
            -105 callgsubr
            -4 callsubr
            endchar
          </CharString>
          <CharString index="248">
            rmoveto
            -24 -74 callsubr
            -170 hlineto
            -26 -6 7 24 hvcurveto
            108 -22 callgsubr
            202 hlineto
            return
          </CharString>
          <CharString index="249">
            285 callgsubr
            -170 246 callgsubr
            return
          </CharString>
          <CharString index="250">
            hlineto
            -20 -3 4 20 hvcurveto
            202 vlineto
            20 3 4 20 vhcurveto
            return
          </CharString>
          <CharString index="251">
            43 callsubr
            -131 -61 callsubr
            return
          </CharString>
          <CharString index="252">
            148 callgsubr
            -60 return
          </CharString>
          <CharString index="253">
            rmoveto
            -394 184 callsubr
            -134 -68 callgsubr
            395 -155 -406 -75 callsubr
            221 hlineto
            31 17 10 20 8 hvcurveto
            -30 155 485 vlineto
            endchar
          </CharString>
          <CharString index="254">
            vlineto
            -53 24 -24 53 vhcurveto
            305 59 -183 183 callsubr
            152 -41 callsubr
            -208 166 208 -102 callgsubr
            return
          </CharString>
          <CharString index="255">
            7 callgsubr
            104 223 callsubr
            -242 rlineto
            -1 -4 -6 -1 -8 hhcurveto
            return
          </CharString>
          <CharString index="256">
            7 callgsubr
            103 223 callsubr
            316 callgsubr
            -6 315 callsubr
            return
          </CharString>
          <CharString index="257">
            -6 -4 -10 -17 vvcurveto
            return
          </CharString>
          <CharString index="258">
            -5 155 callsubr
            return
          </CharString>
          <CharString index="259">
            285 callsubr
            -30 callsubr
            return
          </CharString>
          <CharString index="260">
            -79 callsubr
            hlineto
            endchar
          </CharString>
          <CharString index="261">
            -40 -15 -17 -35 return
          </CharString>
          <CharString index="262">
            236 622 -3 callgsubr
            return
          </CharString>
          <CharString index="263">
            vlineto
            -42 18 -17 30 callgsubr
            -18 -40 vvcurveto
            -108 -105 callgsubr
            return
          </CharString>
          <CharString index="264">
            110 callgsubr
            24 24 53 hvcurveto
            271 return
          </CharString>
          <CharString index="265">
            -78 callgsubr
            134 -166 -120 -61 callsubr
            -151 -102 callsubr
            return
          </CharString>
          <CharString index="266">
            rmoveto
            -567 -59 202 -563 161 563 204 hlineto
            endchar
          </CharString>
          <CharString index="267">
            -381 86 2 callgsubr
            -622 166 622 vlineto
            return
          </CharString>
          <CharString index="268">
            -2 callsubr
            -398 -19 callgsubr
            return
          </CharString>
          <CharString index="269">
            rmoveto
            -175 299 callsubr
            hlineto
            return
          </CharString>
          <CharString index="270">
            59 -428 -59 262 vlineto
            -277 -367 rlineto
            -59 449 59 return
          </CharString>
          <CharString index="271">
            38 287 callgsubr
            -38 return
          </CharString>
          <CharString index="272">
            563 rmoveto
            307 -197 hlineto
            -84 7 -74 0 vhcurveto
            -274 -71 7 callgsubr
            184 vlineto
            72 -10 66 0 vhcurveto
            303 -343 rlineto
            -8 -4 -9 -3 -16 hhcurveto
            return
          </CharString>
          <CharString index="273">
            150 callsubr
            -160 39 callgsubr
            return
          </CharString>
          <CharString index="274">
            -140 rmoveto
            -26 -7 46 callgsubr
            -102 -59 196 hlineto
            54 30 27 57 hvcurveto
            101 -145 vlineto
            return
          </CharString>
          <CharString index="275">
            -26 -6 8 24 hvcurveto
            return
          </CharString>
          <CharString index="276">
            128 callgsubr
            -29 vhcurveto
            -389 283 callgsubr
            211 vlineto
            -74 callgsubr
            144 210 callgsubr
            120 callgsubr
            return
          </CharString>
          <CharString index="277">
            406 -57 callgsubr
            endchar
          </CharString>
          <CharString index="278">
            -299 231 57 callsubr
            10 10 hvcurveto
            -10 13 18 -5 24 hhcurveto
            return
          </CharString>
          <CharString index="279">
            vlineto
            254 callgsubr
            -64 callgsubr
            return
          </CharString>
          <CharString index="280">
            292 callsubr
            86 233 callsubr
            return
          </CharString>
          <CharString index="281">
            -397 235 hmoveto
            485 -155 -485 vlineto
            return
          </CharString>
          <CharString index="282">
            hvcurveto
            -5 hlineto
            37 -3 -18 15 -43 hhcurveto
            return
          </CharString>
          <CharString index="283">
            -54 callsubr
            70 return
          </CharString>
          <CharString index="284">
            rmoveto
            -67 callgsubr
            return
          </CharString>
          <CharString index="285">
            rmoveto
            1 callsubr
            -97 167 83 vlineto
            25 6 187 callgsubr
            -191 49 -167 return
          </CharString>
          <CharString index="286">
            53 24 23 53 hvcurveto
            return
          </CharString>
          <CharString index="287">
            36 13 40 callsubr
            48 63 -95 hlineto
            -57 -27 -28 -56 hvcurveto
            -16 vlineto
            -35 7 -30 3 -11 vhcurveto
            -6 12 -17 37 -30 40 -60 79 rcurveline
            -155 hlineto
            87 -107 return
          </CharString>
          <CharString index="288">
            -81 callsubr
            -135 -59 257 -95 callgsubr
            return
          </CharString>
          <CharString index="289">
            -53 callgsubr
            251 callgsubr
            return
          </CharString>
          <CharString index="290">
            hlineto
            -26 -7 -96 callgsubr
            303 -102 callgsubr
            return
          </CharString>
          <CharString index="291">
            vlineto
            127 callsubr
            return
          </CharString>
          <CharString index="292">
            6 0 6 -1 6 vhcurveto
            return
          </CharString>
          <CharString index="293">
            196 634 -196 hlineto
            236 -185 rmoveto
            196 185 -196 hlineto
            return
          </CharString>
          <CharString index="294">
            -88 callsubr
            157 -41 callsubr
            return
          </CharString>
          <CharString index="295">
            hlineto
            12 234 callgsubr
            return
          </CharString>
          <CharString index="296" raw="1">
            f79607c0 a30b  
          </CharString>
          <CharString index="297">
            vlineto
            -92 callgsubr
            return
          </CharString>
          <CharString index="298">
            -241 -105 callgsubr
            233 hlineto
            -146 -162 rlineto
            171 hlineto
            143 173 rlineto
            -101 -77 callsubr
          </CharString>
          <CharString index="299">
            241 callgsubr
            153 59 -259 313 callgsubr
            return
          </CharString>
          <CharString index="300">
            rmoveto
            59 -107 103 -155 -103 -78 -59 78 -347 -75 callsubr
            182 62 -75 -68 callgsubr
            333 vlineto
            endchar
          </CharString>
          <CharString index="301">
            hlineto
            -179 211 rlineto
            -181 hlineto
            92 -107 46 -53 36 -32 26 -19 rlinecurve
            return
          </CharString>
          <CharString index="302">
            hlineto
            -57 -18 -22 -50 hvcurveto
            -5 hlineto
            50 -18 22 -57 vhcurveto
            return
          </CharString>
          <CharString index="303">
            -53 -22 -22 -53 hvcurveto
            282 callgsubr
            return
          </CharString>
          <CharString index="304">
            143 -59 callsubr
            return
          </CharString>
          <CharString index="305">
            -102 callsubr
            394 return
          </CharString>
          <CharString index="306">
            hlineto
            -26 -7 -96 callgsubr
            142 return
          </CharString>
          <CharString index="307">
            vlineto
            -53 24 -25 53 vhcurveto
            return
          </CharString>
          <CharString index="308">
            166 563 return
          </CharString>
          <CharString index="309">
            174 rmoveto
            277 callgsubr
            -393 270 callsubr
            214 vlineto
            53 24 24 53 hvcurveto
            79 -43 callgsubr
            return
          </CharString>
          <CharString index="310">
            23 callsubr
            99 callsubr
          </CharString>
          <CharString index="311">
            vhcurveto
            -5 vlineto
            -38 return
          </CharString>
          <CharString index="312">
            -71 callsubr
            90 return
          </CharString>
          <CharString index="313">
            336 callgsubr
            172 301 callgsubr
            153 623 -17 callgsubr
          </CharString>
          <CharString index="314">
            -95 callgsubr
            148 vlineto
            53 -24 15 callgsubr
          </CharString>
          <CharString index="315">
            hlineto
            -53 23 -97 callgsubr
            462 59 -339 -102 callsubr
            return
          </CharString>
          <CharString index="316">
            -192 rmoveto
            -63 callsubr
            -194 return
          </CharString>
          <CharString index="317">
            90 32 callsubr
            return
          </CharString>
          <CharString index="318">
            563 122 return
          </CharString>
          <CharString index="319">
            rmoveto
            -20 -3 -4 -21 vhcurveto
            -108 143 callsubr
            108 hlineto
            21 3 -4 -20 hvcurveto
            return
          </CharString>
          <CharString index="320">
            220 callgsubr
            endchar
          </CharString>
          <CharString index="321">
            136 callgsubr
            2 8 hvcurveto
            return
          </CharString>
          <CharString index="322">
            200 callgsubr
            166 -103 callsubr
            return
          </CharString>
          <CharString index="323">
            266 callgsubr
            23 return
          </CharString>
          <CharString index="324">
            -392 hlineto
            142 callgsubr
            return
          </CharString>
          <CharString index="325">
            -59 495 -78 -313 80 callgsubr
            -226 -14 callsubr
            403 -95 callgsubr
            return
          </CharString>
          <CharString index="326">
            246 164 66 callsubr
            return
          </CharString>
          <CharString index="327">
            rmoveto
            -25 -7 340 callgsubr
            -317 hlineto
            -67 callgsubr
            543 vlineto
            26 7 -6 -26 hvcurveto
            return
          </CharString>
          <CharString index="328">
            82 -167 -67 201 callgsubr
            -194 19 callgsubr
            137 298 callsubr
          </CharString>
          <CharString index="329">
            -61 callsubr
            -342 return
          </CharString>
          <CharString index="330">
            71 callgsubr
            302 return
          </CharString>
          <CharString index="331">
            hlineto
            -53 -22 -22 -53 hvcurveto
            -105 vlineto
            -26 9 -21 16 -15 vhcurveto
            -16 -14 -9 -21 -26 vvcurveto
            -105 262 callgsubr
            return
          </CharString>
          <CharString index="332">
            322 callgsubr
            -238 -14 callsubr
            159 hlineto
            -129 -163 rlineto
            173 hlineto
            return
          </CharString>
          <CharString index="333">
            -392 hlineto
            -98 callsubr
            return
          </CharString>
          <CharString index="334">
            rmoveto
            -56 -32 -24 -36 -12 hvcurveto
            59 -155 -485 155 344 vlineto
            47 22 29 49 vhcurveto
            105 66 hlineto
            endchar
          </CharString>
          <CharString index="335">
            -19 callgsubr
            -238 274 callgsubr
            return
          </CharString>
          <CharString index="336" raw="1">
            06561dfb df221d0b  
          </CharString>
          <CharString index="337">
            -7 -46 callsubr
            return
          </CharString>
          <CharString index="338">
            -19 callgsubr
            -98 return
          </CharString>
          <CharString index="339">
            vlineto
            185 callsubr
            return
          </CharString>
          <CharString index="340">
            vlineto
            241 callsubr
            return
          </CharString>
          <CharString index="341">
            158 rmoveto
            -131 vlineto
            -31 callgsubr
            -195 hlineto
            -26 -7 -96 callgsubr
            101 -102 callgsubr
            return
          </CharString>
          <CharString index="342">
            vlineto
            -288 231 264 callsubr
            return
          </CharString>
          <CharString index="343">
            vlineto
            -53 callgsubr
            -331 -105 callgsubr
            219 59 -97 -102 callsubr
            return
          </CharString>
          <CharString index="344">
            rmoveto
            66 callgsubr
            return
          </CharString>
          <CharString index="345">
            hlineto
            267 callgsubr
            122 vlineto
            endchar
          </CharString>
          <CharString index="346">
            vlineto
            25 6 188 callgsubr
            6 -7 -25 hvcurveto
            return
          </CharString>
          <CharString index="347">
            vlineto
            53 -23 23 -53 vhcurveto
            -367 hlineto
            -53 -25 -23 -53 hvcurveto
            return
          </CharString>
          <CharString index="348">
            24 8 9 26 vhcurveto
            return
          </CharString>
          <CharString index="349">
            -105 callgsubr
            219 59 -97 -99 callsubr
            return
          </CharString>
          <CharString index="350">
            -107 callsubr
            526 150 callgsubr
            563 122 vlineto
            endchar
          </CharString>
          <CharString index="351">
            26 vhcurveto
            154 -47 callsubr
            return
          </CharString>
          <CharString index="352">
            rmoveto
            -104 callgsubr
            return
          </CharString>
          <CharString index="353">
            vlineto
            -74 callgsubr
            171 29 callsubr
            -60 return
          </CharString>
          <CharString index="354">
            258 callgsubr
            271 return
          </CharString>
          <CharString index="355">
            398 -48 callgsubr
          </CharString>
          <CharString index="356">
            -41 callsubr
            -51 -61 callsubr
            return
          </CharString>
          <CharString index="357">
            3 callsubr
            -79 -105 callgsubr
            return
          </CharString>
          <CharString index="358">
            208 -103 callsubr
            return
          </CharString>
          <CharString index="359">
            rmoveto
            -436 -58 436 hlineto
            return
          </CharString>
          <CharString index="360">
            164 callsubr
            -2 return
          </CharString>
          <CharString index="361">
            -137 -346 return
          </CharString>
          <CharString index="362">
            hlineto
            -92 -163 rlineto
            160 hlineto
            70 149 69 -149 rlineto
            160 hlineto
            -90 163 rlineto
            return
          </CharString>
          <CharString index="363">
            43 callgsubr
            -105 -72 -59 72 -426 155 426 307 callgsubr
            154 return
          </CharString>
          <CharString index="364">
            22 6 6 23 vhcurveto
            31 59 -31 hlineto
            -23 -6 7 21 hvcurveto
            29 vlineto
            22 6 6 23 vhcurveto
            return
          </CharString>
          <CharString index="365">
            -394 -24 callgsubr
            return
          </CharString>
          <CharString index="366">
            vlineto
            48 -17 30 -57 vhcurveto
            -270 66 hlineto
            17 -4 10 -9 6 vhcurveto
            453 hlineto
            endchar
          </CharString>
          <CharString index="367">
            rmoveto
            56 hlineto
            112 201 rlineto
            68 -168 vlineto
            return
          </CharString>
          <CharString index="368">
            -88 callsubr
            146 hlineto
            return
          </CharString>
          <CharString index="369">
            vlineto
            277 callgsubr
            return
          </CharString>
          <CharString index="370">
            vlineto
            -53 24 -23 53 vhcurveto
            return
          </CharString>
          <CharString index="371">
            rlineto
            237 59 -345 -82 callgsubr
            return
          </CharString>
          <CharString index="372">
            395 699 rmoveto
            -420 -835 rlineto
            139 hlineto
            420 835 rlineto
            endchar
          </CharString>
          <CharString index="373">
            -59 108 -381 hlineto
            -107 callsubr
            393 -38 callgsubr
            return
          </CharString>
          <CharString index="374">
            514 291 callgsubr
          </CharString>
          <CharString index="375">
            355 -93 callsubr
            164 -70 callgsubr
          </CharString>
          <CharString index="376">
            -251 rlineto
            197 hlineto
            217 215 rlineto
            return
          </CharString>
          <CharString index="377">
            -102 callsubr
            83 return
          </CharString>
          <CharString index="378">
            299 callsubr
            109 vlineto
            return
          </CharString>
          <CharString index="379">
            304 callsubr
            59 return
          </CharString>
          <CharString index="380">
            168 131 -168 hlineto
            return
          </CharString>
          <CharString index="381">
            rmoveto
            -32 -17 -11 -22 -8 hvcurveto
            return
          </CharString>
          <CharString index="382">
            -54 callsubr
            88 return
          </CharString>
          <CharString index="383">
            vlineto
            120 callgsubr
            return
          </CharString>
          <CharString index="384">
            -271 -56 callsubr
            return
          </CharString>
          <CharString index="385">
            166 392 vlineto
            26 8 8 346 callsubr
            return
          </CharString>
          <CharString index="386">
            -246 hlineto
            293 callgsubr
            return
          </CharString>
          <CharString index="387">
            rmoveto
            -166 -113 166 hlineto
            return
          </CharString>
          <CharString index="388">
            426 329 callsubr
            return
          </CharString>
          <CharString index="389">
            -646 -19 callgsubr
            return
          </CharString>
          <CharString index="390">
            -78 callgsubr
            79 vlineto
            53 return
          </CharString>
          <CharString index="391">
            rmoveto
            137 128 59 return
          </CharString>
          <CharString index="392">
            -15 -3 -9 -6 -21 hhcurveto
            return
          </CharString>
          <CharString index="393">
            -6 -6 -26 vhcurveto
            return
          </CharString>
          <CharString index="394">
            -188 83 callsubr
            return
          </CharString>
          <CharString index="395">
            -31 callgsubr
            -237 -102 callsubr
            225 vlineto
            24 return
          </CharString>
          <CharString index="396" raw="1">
            f7ed0af2 d21d0b  
          </CharString>
          <CharString index="397">
            -646 228 callsubr
            return
          </CharString>
          <CharString index="398">
            -426 65 callsubr
            return
          </CharString>
          <CharString index="399">
            -26 -8 9 24 hvcurveto
            return
          </CharString>
          <CharString index="400">
            391 2 callgsubr
            return
          </CharString>
          <CharString index="401">
            rlineto
            170 hlineto
            return
          </CharString>
          <CharString index="402">
            -395 142 callsubr
            return
          </CharString>
          <CharString index="403">
            221 2 callgsubr
            -55 hlineto
            -113 -202 rlineto
            -67 168 vlineto
            return
          </CharString>
          <CharString index="404">
            hlineto
            56 18 30 48 hvcurveto
            466 vlineto
            48 -18 30 -56 vhcurveto
            endchar
          </CharString>
          <CharString index="405">
            -103 callsubr
            endchar
          </CharString>
          <CharString index="406">
            -109 175 return
          </CharString>
          <CharString index="407">
            280 callgsubr
            -69 return
          </CharString>
          <CharString index="408">
            -167 303 callgsubr
            return
          </CharString>
          <CharString index="409">
            -103 callsubr
            202 hlineto
            return
          </CharString>
          <CharString index="410">
            hlineto
            -9 -5 -4 -11 -17 vvcurveto
            return
          </CharString>
          <CharString index="411">
            -92 callsubr
            161 return
          </CharString>
          <CharString index="412">
            hlineto
            -26 -7 7 26 hvcurveto
            return
          </CharString>
          <CharString index="413">
            -24 343 callsubr
            return
          </CharString>
          <CharString index="414">
            -85 callgsubr
            -208 -102 callsubr
            return
          </CharString>
          <CharString index="415">
            vlineto
            53 -24 74 callsubr
            return
          </CharString>
          <CharString index="416">
            1 callgsubr
            -231 -59 121 hlineto
            26 6 return
          </CharString>
          <CharString index="417">
            3 callsubr
            -322 -105 callgsubr
            return
          </CharString>
          <CharString index="418">
            302 callsubr
            26 7 -7 -25 hvcurveto
            return
          </CharString>
          <CharString index="419">
            hlineto
            -53 -25 110 callsubr
            return
          </CharString>
          <CharString index="420">
            -85 callgsubr
            -170 -102 callsubr
            return
          </CharString>
          <CharString index="421">
            -14 callsubr
            402 hlineto
            254 callgsubr
            return
          </CharString>
          <CharString index="422">
            -7 -1 -10 hhcurveto
            return
          </CharString>
          <CharString index="423" raw="1">
            221df7c5 c6fb4b06 710b 
          </CharString>
          <CharString index="424">
            -26 -7 -96 callgsubr
            145 -102 callgsubr
            return
          </CharString>
          <CharString index="425">
            -157 -105 callgsubr
            return
          </CharString>
          <CharString index="426">
            -97 callgsubr
            342 callgsubr
            return
          </CharString>
          <CharString index="427">
            0 vhcurveto
            300 -337 rlineto
            -4 return
          </CharString>
          <CharString index="428">
            -68 callgsubr
            129 return
          </CharString>
          <CharString index="429">
            120 -103 callsubr
            return
          </CharString>
          <CharString index="430">
            39 callsubr
            122 return
          </CharString>
          <CharString index="431">
            53 vhcurveto
            182 292 callgsubr
            -96 callgsubr
            return
          </CharString>
          <CharString index="432">
            -243 hlineto
            -63 callsubr
            -139 197 return
          </CharString>
          <CharString index="433">
            hlineto
            -50 -152 rlineto
            134 hlineto
            50 152 rlineto
            return
          </CharString>
          <CharString index="434">
            hlineto
            92 -107 56 -65 41 -33 27 -17 rlinecurve
            endchar
          </CharString>
          <CharString index="435">
            -22 callgsubr
            endchar
          </CharString>
          <CharString index="436">
            rmoveto
            137 122 59 return
          </CharString>
          <CharString index="437">
            rmoveto
            -26 -5 5 26 hvcurveto
            return
          </CharString>
          <CharString index="438">
            hlineto
            -26 -7 6 25 hvcurveto
            return
          </CharString>
          <CharString index="439">
            vhcurveto
            -4 vlineto
            -38 -1 -18 return
          </CharString>
          <CharString index="440" raw="1">
            fb1f0756 0b  
          </CharString>
          <CharString index="441">
            hlineto
            23 7 -8 -20 12 hvcurveto
            106 -183 rlineto
            return
          </CharString>
          <CharString index="442">
            -81 callsubr
            -161 -102 callsubr
            return
          </CharString>
          <CharString index="443">
            9 25 302 callgsubr
            return
          </CharString>
          <CharString index="444">
            vhcurveto
            282 hlineto
            39 18 19 return
          </CharString>
          <CharString index="445">
            -78 callgsubr
            203 vlineto
            53 return
          </CharString>
          <CharString index="446">
            rmoveto
            -176 78 176 hlineto
            return
          </CharString>
          <CharString index="447">
            vlineto
            -9 150 callsubr
            return
          </CharString>
          <CharString index="448">
            -26 -6 7 26 hvcurveto
            return
          </CharString>
          <CharString index="449" raw="1">
            fb320756 0b  
          </CharString>
          <CharString index="450">
            -6 46 callgsubr
            return
          </CharString>
          <CharString index="451">
            -185 43 vlineto
            83 128 rlineto
            57 vlineto
            return
          </CharString>
          <CharString index="452" raw="1">
            f7a5f75c 1d0b  
          </CharString>
          <CharString index="453">
            26 vhcurveto
            151 -41 callsubr
            return
          </CharString>
          <CharString index="454">
            256 755 rmoveto
            53 -25 25 -53 vhcurveto
            return
          </CharString>
          <CharString index="455">
            -167 -399 hlineto
            -107 callsubr
            return
          </CharString>
        <CharString name=".notdef">
          41 171 hmoveto
          411 701 -411 hlineto
          66 -62 rmoveto
          279 -577 -279 hlineto
          endchar
        </CharString>
        <CharString name="A">
          9 241 182 -50 callsubr
        </CharString>
        <CharString name="AE">
          342 313 194 rmoveto
          216 336 rlineto
          -336 vlineto
          162 -135 rmoveto
          230 269 59 -269 215 304 59 -565 vlineto
          -412 -622 294 callsubr
          87 135 rlineto
          254 -135 479 59 hlineto
          endchar
        </CharString>
        <CharString name="Aacute">
          7 603 818 25 callgsubr
          -194 -488 -50 callsubr
        </CharString>
        <CharString name="Abreve">
          7 513 669 56 callgsubr
          35 -487 -50 callsubr
        </CharString>
        <CharString name="Acircumflex">
          7 359 762 rmoveto
          36 callsubr
          -175 -152 rlineto
          154 hlineto
          -22 -487 -50 callsubr
        </CharString>
        <CharString name="Adieresis">
          7 591 778 162 callsubr
          -286 109 162 callsubr
          -65 -487 -50 callsubr
        </CharString>
        <CharString name="Agrave">
          7 417 670 115 callsubr
          -45 -488 -50 callsubr
        </CharString>
        <CharString name="Amacron">
          7 581 728 252 callsubr
          -341 -488 -50 callsubr
        </CharString>
        <CharString name="Aogonek">
          7 240 182 rmoveto
          119 342 119 -342 rlineto
          77 -370 83 callsubr
          89 6 hlineto
          -239 622 rlineto
          -204 hlineto
          -238 -622 rlineto
          157 hlineto
          43 123 rlineto
          279 hlineto
          43 -123 rlineto
          -34 -53 vlineto
          147 callgsubr
        </CharString>
        <CharString name="Aring">
          7 284 767 42 callgsubr
          -15 -488 -50 callsubr
        </CharString>
        <CharString name="Atilde">
          7 248 725 rmoveto
          13 6 8 13 vhcurveto
          -12 callsubr
          vlineto
          -8 -487 -50 callsubr
        </CharString>
        <CharString name="B">
          1 82 2 callgsubr
          -622 477 vlineto
          53 26 26 53 hvcurveto
          170 vlineto
          39 269 callgsubr
          168 -57 callgsubr
          -76 -537 rmoveto
          -20 -9 -6 -25 vhcurveto
          -205 223 208 -59 callsubr
          121 vmoveto
          -48 callsubr
          -208 222 208 -59 callsubr
          endchar
        </CharString>
        <CharString name="C">
          -37 622 403 -13 callgsubr
        </CharString>
        <CharString name="CR">
          -438 endchar
        </CharString>
        <CharString name="Cacute">
          -44 577 818 25 callgsubr
          211 -267 -13 callgsubr
        </CharString>
        <CharString name="Ccaron">
          -44 421 669 -17 callsubr
          350 -266 -13 callgsubr
        </CharString>
        <CharString name="Ccedilla">
          -44 267 167 callsubr
          352 451 -13 callgsubr
        </CharString>
        <CharString name="D">
          3 478 210 callsubr
          -203 504 203 -59 callsubr
          -396 90 rmoveto
          -622 479 vlineto
          53 26 26 53 hvcurveto
          464 -57 callgsubr
          endchar
        </CharString>
        <CharString name="Dcaron">
          6 427 669 -17 callsubr
          207 -579 32 callsubr
          -203 504 203 -59 callsubr
          -396 90 rmoveto
          -622 479 vlineto
          53 26 26 53 hvcurveto
          464 -57 callgsubr
          endchar
        </CharString>
        <CharString name="Dcroat">
          44 516 120 callsubr
        </CharString>
        <CharString name="E">
          -101 249 59 rmoveto
          230 53 callgsubr
          vlineto
          endchar
        </CharString>
        <CharString name="Eacute">
          -105 562 817 25 callgsubr
          -146 -610 rmoveto
          230 53 callgsubr
          vlineto
          endchar
        </CharString>
        <CharString name="Ecaron">
          -105 409 669 -17 callsubr
          -10 -380 rmoveto
          53 callgsubr
          -323 hlineto
          endchar
        </CharString>
        <CharString name="Ecircumflex">
          -105 324 762 rmoveto
          36 callsubr
          -175 -152 rlineto
          154 hlineto
          20 -380 rmoveto
          53 callgsubr
          -323 hlineto
          endchar
        </CharString>
        <CharString name="Edieresis">
          -72 550 778 320 callgsubr
          -286 109 162 callsubr
          -17 -610 rmoveto
          230 53 callgsubr
          vlineto
          endchar
        </CharString>
        <CharString name="Edotaccent">
          -105 418 783 280 callsubr
          -171 -611 rmoveto
          230 53 callgsubr
          vlineto
          endchar
        </CharString>
        <CharString name="Egrave">
          -105 393 669 115 callsubr
          -14 -610 rmoveto
          230 53 callgsubr
          vlineto
          endchar
        </CharString>
        <CharString name="Emacron">
          -105 539 727 252 callsubr
          -292 -610 rmoveto
          230 53 callgsubr
          vlineto
          endchar
        </CharString>
        <CharString name="Eogonek">
          -105 432 279 callgsubr
          -1 46 -323 230 269 59 -269 215 310 59 -477 -622 338 100 callsubr
          hlineto
          endchar
        </CharString>
        <CharString name="Eth">
          14 493 120 callsubr
        </CharString>
        <CharString name="Euro">
          -2 660 403 rmoveto
          140 -57 callgsubr
          -389 43 callgsubr
          -138 -84 -59 84 -69 -84 -59 84 -139 -75 callsubr
          389 -54 callsubr
          139 -162 -128 -14 callgsubr
          -161 -68 callgsubr
          128 137 59 -137 69 137 59 -137 127 -45 callsubr
          161 -59 callsubr
          -129 vlineto
          endchar
        </CharString>
        <CharString name="F">
          -125 559 563 rmoveto
          59 -477 -622 167 265 271 59 -271 239 vlineto
          endchar
        </CharString>
        <CharString name="G">
          -23 623 423 rmoveto
          120 -57 callgsubr
          -391 -9 callsubr
          391 -54 callsubr
          241 -283 -59 122 -171 -14 callgsubr
          -164 -68 callgsubr
          442 -45 callsubr
          163 -59 callsubr
          -109 vlineto
          endchar
        </CharString>
        <CharString name="Gbreve">
          -29 497 669 56 callgsubr
          431 -246 rmoveto
          120 -57 callgsubr
          -391 -9 callsubr
          391 -54 callsubr
          241 -283 -59 122 -171 -14 callgsubr
          -164 -68 callgsubr
          442 -45 callsubr
          163 -59 callsubr
          -109 vlineto
          endchar
        </CharString>
        <CharString name="H">
          49 517 2 callgsubr
          -281 -273 281 -162 -622 162 282 273 -282 162 622 vlineto
          endchar
        </CharString>
        <CharString name="I">
          -366 90 2 callgsubr
          -622 166 622 vlineto
          endchar
        </CharString>
        <CharString name="Iacute">
          160 callsubr
          -143 47 70 callsubr
          endchar
        </CharString>
        <CharString name="Icircumflex">
          160 callsubr
          -330 48 rmoveto
          154 hlineto
          97 93 36 callsubr
          endchar
        </CharString>
        <CharString name="Idieresis">
          160 callsubr
          -312 155 rmoveto
          -108 174 108 vlineto
          112 hmoveto
          -108 175 108 vlineto
          endchar
        </CharString>
        <CharString name="Idotaccent">
          -393 80 546 rmoveto
          -546 166 546 vlineto
          -167 160 rmoveto
          -113 166 113 vlineto
          endchar
        </CharString>
        <CharString name="Igrave">
          160 callsubr
          -162 195 154 callgsubr
        </CharString>
        <CharString name="Imacron">
          160 callsubr
          -297 47 275 callgsubr
          endchar
        </CharString>
        <CharString name="Iogonek">
          -381 111 287 callsubr
          89 2 622 -166 -622 11 100 callsubr
          hlineto
          endchar
        </CharString>
        <CharString name="J">
          -92 31 232 rmoveto
          -153 -75 callsubr
          357 162 callgsubr
          -162 -532 -14 callgsubr
          -129 -68 callgsubr
          142 vlineto
          endchar
        </CharString>
        <CharString name="K">
          -4 502 2 callgsubr
          257 callgsubr
          -598 hmoveto
          -622 158 622 vlineto
          endchar
        </CharString>
        <CharString name="L">
          -147 244 59 209 callgsubr
        </CharString>
        <CharString name="Lacute">
          -153 405 817 25 callgsubr
          6 -610 209 callgsubr
        </CharString>
        <CharString name="Lcaron">
          -153 237 670 -17 callsubr
          157 -611 209 callgsubr
        </CharString>
        <CharString name="Lslash">
          -141 248 59 rmoveto
          235 vlineto
          160 53 rlineto
          65 vlineto
          -160 -53 rlineto
          263 -162 -317 vlineto
          -122 -41 rlineto
          -65 vlineto
          122 41 rlineto
          -240 462 59 vlineto
          endchar
        </CharString>
        <CharString name="M">
          190 504 135 rmoveto
          171 333 rlineto
          -468 145 622 -173 vlineto
          -199 -389 -193 389 rlineto
          -173 -622 145 467 hlineto
          167 -332 rlineto
          endchar
        </CharString>
        <CharString name="N">
          25 506 118 callgsubr
          endchar
        </CharString>
        <CharString name="NULL">
          -712 endchar
        </CharString>
        <CharString name="Nacute">
          22 307 668 70 callsubr
          59 -194 213 callsubr
        </CharString>
        <CharString name="Ncaron">
          22 294 669 rmoveto
          152 hlineto
          176 151 rlineto
          -155 hlineto
          -97 -93 -97 93 rlineto
          -154 hlineto
          385 -198 213 callsubr
        </CharString>
        <CharString name="Ntilde">
          22 504 118 callgsubr
          -378 124 rmoveto
          -12 callsubr
          56 vlineto
          13 6 8 13 vhcurveto
          endchar
        </CharString>
        <CharString name="O">
          -17 621 97 callsubr
          endchar
        </CharString>
        <CharString name="OE">
          267 466 210 callsubr
          -168 -68 callgsubr
          442 -45 callsubr
          168 -59 callsubr
          164 -473 rmoveto
          230 254 59 -254 215 290 59 -412 -13 vlineto
          8 -16 -21 5 -26 hhcurveto
          -292 -9 callsubr
          292 hlineto
          26 21 5 8 16 hvcurveto
          -13 425 59 vlineto
          endchar
        </CharString>
        <CharString name="Oacute">
          -19 290 669 70 callsubr
          192 -274 -47 callgsubr
          endchar
        </CharString>
        <CharString name="Ocircumflex">
          -19 96 669 rmoveto
          154 hlineto
          97 93 36 callsubr
          349 -278 -47 callgsubr
          endchar
        </CharString>
        <CharString name="Odieresis">
          -29 620 543 rmoveto
          118 callsubr
          389 -54 callsubr
          -161 11 32 callsubr
          -163 -68 callgsubr
          442 -45 callsubr
          163 272 callgsubr
          246 250 callgsubr
          175 109 vlineto
          endchar
        </CharString>
        <CharString name="Ograve">
          90 callgsubr
          -181 285 154 callgsubr
        </CharString>
        <CharString name="Ohungarumlaut">
          -29 152 2 callgsubr
          -4 callgsubr
          389 -54 callsubr
          464 -57 callgsubr
          -82 -90 rmoveto
          -442 -14 callgsubr
          -163 -68 callgsubr
          442 -45 callsubr
          163 -59 callsubr
          -130 297 rmoveto
          -144 -160 rlineto
          117 hlineto
          175 160 rlineto
          87 hmoveto
          -148 -160 rlineto
          117 hlineto
          179 160 rlineto
          endchar
        </CharString>
        <CharString name="Omacron">
          -19 128 670 275 callgsubr
          492 -185 -47 callgsubr
          endchar
        </CharString>
        <CharString name="Oslash">
          2 479 88 rmoveto
          -26 -5 -5 -27 vhcurveto
          -182 -68 callgsubr
          3 vlineto
          245 325 rlineto
          -245 118 rmoveto
          -26 callgsubr
          182 hlineto
          27 -13 callsubr
          -9 vlineto
          -245 -325 rlineto
          423 452 rmoveto
          -82 hlineto
          -23 -30 rlineto
          -394 43 callgsubr
          -464 vlineto
          -26 6 -20 13 -13 vhcurveto
          -38 -50 rlineto
          83 hlineto
          23 30 rlineto
          389 -54 callsubr
          464 vlineto
          24 -6 19 -11 13 vhcurveto
          endchar
        </CharString>
        <CharString name="Otilde">
          90 callgsubr
          -209 214 rmoveto
          -12 callsubr
          56 vlineto
          13 6 8 13 vhcurveto
          endchar
        </CharString>
        <CharString name="P">
          -24 481 293 32 callsubr
          -206 301 206 -59 callsubr
          -399 90 rmoveto
          -622 162 203 319 vlineto
          53 26 26 53 hvcurveto
          261 -57 callgsubr
          endchar
        </CharString>
        <CharString name="Q">
          -38 222 532 rmoveto
          -26 callgsubr
          167 -59 callsubr
          -442 -14 callgsubr
          -167 -68 callgsubr
          395 -187 rmoveto
          -122 97 rlineto
          36 -54 callsubr
          464 vlineto
          118 callsubr
          177 hlineto
          113 -97 rlineto
          endchar
        </CharString>
        <CharString name="R">
          -5 244 563 38 callsubr
        </CharString>
        <CharString name="Racute">
          -8 581 816 25 callgsubr
          -170 -105 38 callsubr
        </CharString>
        <CharString name="Rcaron">
          -8 429 668 -17 callsubr
          -35 -105 38 callsubr
        </CharString>
        <CharString name="S">
          -43 443 90 50 callsubr
        </CharString>
        <CharString name="Sacute">
          -44 280 668 70 callsubr
          25 -726 50 callsubr
        </CharString>
        <CharString name="Scaron">
          -44 261 668 rmoveto
          152 hlineto
          176 151 rlineto
          -155 hlineto
          -97 -93 -97 93 rlineto
          -154 hlineto
          357 -729 50 callsubr
        </CharString>
        <CharString name="T">
          -129 575 622 159 callsubr
        </CharString>
        <CharString name="Tcaron">
          -127 368 668 -17 callsubr
          360 -46 159 callsubr
        </CharString>
        <CharString name="Thorn">
          -24 472 192 32 callsubr
          -196 300 196 -59 callsubr
          -227 90 rmoveto
          102 -161 -622 161 102 309 vlineto
          53 26 26 53 hvcurveto
          260 -57 callgsubr
          endchar
        </CharString>
        <CharString name="U">
          -7 155 callsubr
          endchar
        </CharString>
        <CharString name="Uacute">
          -5 291 669 70 callsubr
          -193 -195 -3 callgsubr
          endchar
        </CharString>
        <CharString name="Ucircumflex">
          -5 101 669 rmoveto
          154 hlineto
          97 93 36 callsubr
          -40 -199 -3 callgsubr
          endchar
        </CharString>
        <CharString name="Udieresis">
          -5 471 2 callgsubr
          -532 -14 callgsubr
          -173 -68 callgsubr
          532 -161 -543 -75 callsubr
          398 162 callgsubr
          vlineto
          -511 156 265 callgsubr
        </CharString>
        <CharString name="Ugrave">
          151 callsubr
          55 727 154 callgsubr
        </CharString>
        <CharString name="Uhungarumlaut">
          -19 236 2 callgsubr
          -161 -543 245 callgsubr
          398 162 callgsubr
          -160 -532 -14 callgsubr
          -173 -68 callgsubr
          326 737 rmoveto
          -148 -160 rlineto
          117 hlineto
          179 160 rlineto
          -383 hmoveto
          -144 -160 rlineto
          117 hlineto
          175 160 rlineto
          endchar
        </CharString>
        <CharString name="Umacron">
          151 callsubr
          -102 579 275 callgsubr
          endchar
        </CharString>
        <CharString name="Uogonek">
          -5 470 2 callgsubr
          77 callsubr
          532 -162 -543 -75 callsubr
          122 100 callsubr
          23 callgsubr
          4 233 callgsubr
          5 26 vhcurveto
          139 89 124 162 callgsubr
          vlineto
          endchar
        </CharString>
        <CharString name="Uring">
          -5 534 777 113 callgsubr
          -197 -145 -3 callgsubr
          endchar
        </CharString>
        <CharString name="V">
          -1 526 2 callgsubr
          -171 -515 -169 515 rlineto
          -163 hlineto
          233 -622 rlineto
          198 hlineto
          234 622 rlineto
          endchar
        </CharString>
        <CharString name="W">
          386 918 2 callgsubr
          -145 -509 -144 509 rlineto
          -162 hlineto
          -144 -509 -136 509 rlineto
          -164 hlineto
          203 -622 rlineto
          194 hlineto
          128 454 129 -454 rlineto
          194 hlineto
          204 622 rlineto
          endchar
        </CharString>
        <CharString name="X">
          -14 435 322 rmoveto
          221 300 rlineto
          -167 hlineto
          -143 -210 -144 210 rlineto
          -174 hlineto
          230 -310 -238 -312 rlineto
          166 hlineto
          160 224 159 -224 rlineto
          173 hlineto
          endchar
        </CharString>
        <CharString name="Y">
          -34 672 622 194 callgsubr
          -419 rlineto
          -203 161 206 vlineto
          endchar
        </CharString>
        <CharString name="Yacute">
          -37 584 817 25 callgsubr
          256 -47 194 callgsubr
          -419 rlineto
          -203 161 206 vlineto
          endchar
        </CharString>
        <CharString name="Ydieresis">
          -34 289 778 162 callsubr
          286 109 162 callsubr
          97 -47 194 callgsubr
          -418 rlineto
          -204 161 205 vlineto
          endchar
        </CharString>
        <CharString name="Z">
          -71 595 622 137 callsubr
        </CharString>
        <CharString name="Zacute">
          -72 570 817 25 callgsubr
          193 135 callgsubr
        </CharString>
        <CharString name="Zcaron">
          -72 410 669 -17 callsubr
          336 135 callgsubr
        </CharString>
        <CharString name="Zdotaccent">
          -72 421 782 280 callsubr
          173 135 callgsubr
        </CharString>
        <CharString name="a">
          -61 252 59 -76 callgsubr
        </CharString>
        <CharString name="aacute">
          -64 562 680 25 callgsubr
          -145 -473 -76 callgsubr
        </CharString>
        <CharString name="abreve">
          -64 477 532 56 callgsubr
          79 -473 -76 callgsubr
        </CharString>
        <CharString name="acircumflex">
          -64 323 625 rmoveto
          36 callsubr
          -175 -152 rlineto
          154 hlineto
          22 -473 0 callgsubr
          135 hlineto
          25 11 -9 -23 hvcurveto
          -303 184 callsubr
          36 393 rmoveto
          -55 callgsubr
          -33 154 485 -154 vlineto
          endchar
        </CharString>
        <CharString name="acute">
          -65 168 506 70 callsubr
          endchar
        </CharString>
        <CharString name="adieresis">
          -64 561 641 162 callsubr
          -287 109 320 callgsubr
          -26 -473 -76 callgsubr
        </CharString>
        <CharString name="ae">
          285 742 426 rmoveto
          -36 callsubr
          -117 -211 117 -45 callsubr
          -341 -367 330 callsubr
          82 vlineto
          189 43 rlineto
          -126 vlineto
          -24 -8 -6 -24 vhcurveto
          540 160 rmoveto
          3 6 184 -57 callgsubr
          -274 hlineto
          -63 -16 -15 -22 -6 hvcurveto
          22 -8 -22 15 -64 hhcurveto
          -247 43 callgsubr
          -100 155 90 -45 callsubr
          126 hlineto
          24 8 -6 -25 hvcurveto
          -117 vlineto
          -344 -78 rlineto
          -122 -75 callsubr
          247 hlineto
          64 22 15 22 8 hvcurveto
          -22 6 16 -15 63 hhcurveto
          272 -54 callsubr
          69 -151 -58 -14 callgsubr
          -147 321 callsubr
          vlineto
          endchar
        </CharString>
        <CharString name="agrave">
          -64 413 532 115 callsubr
          -33 -473 -76 callgsubr
        </CharString>
        <CharString name="amacron">
          -64 534 594 252 callsubr
          -286 -477 -76 callgsubr
        </CharString>
        <CharString name="ampersand">
          149 249 59 330 callsubr
          72 vlineto
          28 10 13 29 11 vhcurveto
          61 22 212 -177 rlineto
          -239 473 rmoveto
          -26 callgsubr
          141 -59 callsubr
          -98 vlineto
          -34 -19 -16 -46 -16 vhcurveto
          -62 -23 rlineto
          -55 46 -21 19 43 vvcurveto
          543 -498 rmoveto
          -65 55 rlineto
          27 13 14 27 39 vvcurveto
          145 -126 -144 vlineto
          -9 vlineto
          -241 201 92 34 rlineto
          74 27 39 32 73 vvcurveto
          95 -57 callgsubr
          -353 43 callgsubr
          -98 vlineto
          -63 37 -26 68 -56 vhcurveto
          -81 -30 rlineto
          -72 -25 -25 -23 -58 vvcurveto
          -85 -75 callsubr
          457 hlineto
          54 -45 rlineto
          endchar
        </CharString>
        <CharString name="aogonek">
          -64 248 59 0 callgsubr
          135 hlineto
          25 11 -9 -23 hvcurveto
          -303 184 callsubr
          50 -247 83 callsubr
          89 1 485 -154 -33 hlineto
          -55 callgsubr
          -67 -53 vlineto
          147 callgsubr
        </CharString>
        <CharString name="approxequal">
          88 583 390 rmoveto
          -60 vlineto
          -30 -11 -9 -34 vhcurveto
          -101 -44 99 -118 hhcurveto
          -133 hlineto
          -54 -24 -27 -50 hvcurveto
          -115 153 60 vlineto
          30 10 8 35 vhcurveto
          104 325 callgsubr
          115 vlineto
          endchar
        </CharString>
        <CharString name="aring">
          -64 246 630 42 callgsubr
          31 -474 -76 callgsubr
        </CharString>
        <CharString name="asciicircum">
          -60 234 668 rmoveto
          -200 -340 rlineto
          146 hlineto
          146 252 145 -252 rlineto
          147 hlineto
          -200 340 rlineto
          endchar
        </CharString>
        <CharString name="asciitilde">
          83 259 264 rmoveto
          105 325 callgsubr
          91 -152 -61 vlineto
          -29 -11 -10 -34 vhcurveto
          -101 -44 100 -118 hhcurveto
          -133 hlineto
          -54 -24 -27 -51 hvcurveto
          -91 153 61 vlineto
          29 10 9 34 vhcurveto
          endchar
        </CharString>
        <CharString name="asterisk">
          -183 208 658 rmoveto
          -62 vlineto
          -29 5 -27 7 -22 vhcurveto
          -20 15 -24 14 -27 10 -59 19 rcurveline
          -37 -113 59 -19 26 -8 27 -4 25 -1 rlinecurve
          -20 -13 -22 -19 -17 -23 -36 -51 rcurveline
          95 -69 37 50 16 23 12 26 7 21 rlinecurve
          7 -22 12 -27 16 -24 37 -51 rcurveline
          96 71 -37 49 -16 24 -21 18 -18 14 rlinecurve
          24 -1 28 3 28 9 60 19 rcurveline
          -38 113 -58 -20 -27 -9 -24 -13 -19 -14 rlinecurve
          8 23 6 28 30 vvcurveto
          62 vlineto
          endchar
        </CharString>
        <CharString name="at">
          428 409 426 rmoveto
          -46 -23 -23 -46 hvcurveto
          -210 vlineto
          -46 23 -23 46 vhcurveto
          188 hlineto
          29 21 10 26 4 hvcurveto
          -55 351 vlineto
          46 23 23 46 hvcurveto
          366 vlineto
          46 -23 23 -46 vhcurveto
          -856 hlineto
          -47 -22 -23 -46 hvcurveto
          -496 vlineto
          -46 22 -23 47 vhcurveto
          718 60 -630 hlineto
          -23 -4 4 23 hvcurveto
          459 vlineto
          23 4 5 23 vhcurveto
          680 hlineto
          23 4 -5 -23 hvcurveto
          -330 vlineto
          -23 -4 -4 -23 vhcurveto
          -137 308 -130 -27 hlineto
          18 -8 -17 9 -25 hhcurveto
          -127 -86 rmoveto
          22 4 5 23 vhcurveto
          118 hlineto
          21 10 -7 -20 1 hvcurveto
          -176 vlineto
          -20 -1 -10 -7 -21 hhcurveto
          -118 hlineto
          -23 -4 4 23 hvcurveto
          endchar
        </CharString>
        <CharString name="atilde">
          -64 210 588 rmoveto
          13 6 8 13 vhcurveto
          -12 callsubr
          vlineto
          38 -473 -76 callgsubr
        </CharString>
        <CharString name="b">
          -61 430 210 callsubr
          -134 hlineto
          -25 -10 9 23 hvcurveto
          25 -1 247 1 31 vlineto
          23 10 336 callsubr
          -144 90 274 callsubr
          217 -155 -669 155 33 vlineto
          -22 8 17 -11 32 hhcurveto
          220 311 callgsubr
          endchar
        </CharString>
        <CharString name="backslash">
          -261 -77 699 rmoveto
          420 -835 rlineto
          138 hlineto
          -420 835 rlineto
          endchar
        </CharString>
        <CharString name="bar">
          -399 84 763 rmoveto
          -906 145 906 vlineto
          endchar
        </CharString>
        <CharString name="braceleft">
          -290 320 583 rmoveto
          49 8 29 43 vhcurveto
          79 59 -111 hlineto
          -122 -58 -38 -121 hvcurveto
          -183 vlineto
          -69 -26 -30 -66 vhcurveto
          -14 -59 14 hlineto
          66 26 -29 -68 hvcurveto
          -186 vlineto
          -121 58 -37 122 vhcurveto
          111 59 -79 hlineto
          -43 -8 29 48 hvcurveto
          209 vlineto
          69 -29 51 -59 4 vhcurveto
          59 5 29 49 71 vvcurveto
          endchar
        </CharString>
        <CharString name="braceright">
          -281 111 373 rmoveto
          -71 29 -49 59 -5 vhcurveto
          -59 -4 -29 -51 -69 vvcurveto
          -209 vlineto
          -48 -8 -29 -43 vhcurveto
          -80 -59 112 hlineto
          122 58 37 121 hvcurveto
          186 vlineto
          68 26 29 65 vhcurveto
          14 59 -14 hlineto
          -65 -26 30 69 hvcurveto
          183 vlineto
          121 -58 38 -122 vhcurveto
          -112 -59 80 hlineto
          43 8 -29 -49 hvcurveto
          endchar
        </CharString>
        <CharString name="bracketleft">
          -359 390 661 rmoveto
          59 -310 -940 310 59 -148 822 vlineto
          endchar
        </CharString>
        <CharString name="bracketright">
          -359 274 720 rmoveto
          -311 -59 149 -822 -149 -59 311 hlineto
          endchar
        </CharString>
        <CharString name="breve">
          -65 418 652 rmoveto
          -53 -14 callgsubr
          -128 -68 callgsubr
          53 -138 -63 -75 callsubr
          308 hlineto
          332 callgsubr
          vlineto
          endchar
        </CharString>
        <CharString name="brokenbar">
          -410 79 251 rmoveto
          -394 144 394 vlineto
          119 vmoveto
          393 -144 -393 vlineto
          endchar
        </CharString>
        <CharString name="bullet">
          -225 243 451 rmoveto
          -91 -76 -60 -75 -74 76 -61 91 93 75 61 74 75 -75 60 -93 hvcurveto
          endchar
        </CharString>
        <CharString name="c">
          -97 566 316 -8 callgsubr
        </CharString>
        <CharString name="cacute">
          -104 556 680 25 callgsubr
          175 -216 -8 callgsubr
        </CharString>
        <CharString name="caron">
          -65 247 502 rmoveto
          152 hlineto
          176 151 rlineto
          -155 hlineto
          -97 -93 -97 93 rlineto
          -154 hlineto
          endchar
        </CharString>
        <CharString name="ccaron">
          -104 384 532 -17 callsubr
          330 -216 -8 callgsubr
        </CharString>
        <CharString name="ccedilla">
          -104 242 167 callsubr
          320 364 -8 callgsubr
        </CharString>
        <CharString name="cedilla">
          -65 312 167 callsubr
          endchar
        </CharString>
        <CharString name="cent">
          -104 562 316 rmoveto
          90 -57 callgsubr
          -93 77 -156 -77 -92 -29 callsubr
          92 -78 156 78 93 275 callsubr
          -150 -77 -14 callgsubr
          -132 24 callgsubr
          132 -59 callsubr
          -79 vlineto
          endchar
        </CharString>
        <CharString name="circumflex">
          -65 72 506 rmoveto
          154 hlineto
          97 93 36 callsubr
          endchar
        </CharString>
        <CharString name="colon">
          -428 58 317 rmoveto
          -149 168 149 vlineto
          endchar
        </CharString>
        <CharString name="comma">
          -436 58 -139 rmoveto
          318 callgsubr
        </CharString>
        <CharString name="commaaccent">
          -65 244 -251 124 callgsubr
        </CharString>
        <CharString name="copyright">
          352 995 340 rmoveto
          180 -69 102 -216 vhcurveto
          -356 hlineto
          -216 -69 -102 -180 hvcurveto
          -62 vlineto
          -181 69 -97 216 vhcurveto
          356 hlineto
          216 69 97 181 hvcurveto
          -617 -218 rmoveto
          -132 -44 72 137 hvcurveto
          80 vlineto
          136 44 79 132 vhcurveto
          308 hlineto
          132 44 -79 -136 hvcurveto
          -80 vlineto
          -137 -44 -72 -132 vhcurveto
          -73 180 32 callsubr
          -98 -68 callgsubr
          149 -45 callsubr
          98 -59 callsubr
          -34 117 45 -57 callgsubr
          -236 43 callgsubr
          -171 -75 callsubr
          236 -54 callsubr
          45 -117 vlineto
          endchar
        </CharString>
        <CharString name="currency">
          54 311 168 rmoveto
          -60 -21 7 61 hvcurveto
          113 vlineto
          61 21 18 60 vhcurveto
          148 hlineto
          59 21 -18 -61 hvcurveto
          -113 vlineto
          -61 -21 -7 -59 vhcurveto
          202 193 rmoveto
          22 -3 19 -6 17 vhcurveto
          53 52 -84 86 -73 -72 rlineto
          1 -12 -14 1 -14 hhcurveto
          -247 hlineto
          -15 -15 -1 -1 -12 hvcurveto
          -74 72 -84 -86 56 -55 rlineto
          -6 -16 -2 -18 -21 vvcurveto
          -125 vlineto
          -21 2 -19 6 -16 vhcurveto
          -56 -55 84 -85 73 71 rlineto
          -1 13 14 -1 16 hhcurveto
          247 hlineto
          15 13 1 1 12 hvcurveto
          73 -71 84 85 -53 52 rlineto
          6 17 3 20 22 vvcurveto
          endchar
        </CharString>
        <CharString name="d">
          -61 252 59 0 callgsubr
          135 hlineto
          25 11 -9 -23 hvcurveto
          -303 184 callsubr
          36 610 rmoveto
          -217 -51 callsubr
          -33 154 669 vlineto
          endchar
        </CharString>
        <CharString name="dagger">
          -96 559 467 rmoveto
          -169 155 -161 -155 -173 -59 173 -533 161 533 169 hlineto
          endchar
        </CharString>
        <CharString name="daggerdbl">
          -78 568 388 rmoveto
          59 -169 175 -161 -175 -173 -59 173 -298 -173 -59 173 -180 161 180 169 59 -169 298 vlineto
          endchar
        </CharString>
        <CharString name="danda">
          -290 164 hmoveto
          163 622 -163 hlineto
          endchar
        </CharString>
        <CharString name="dcaron">
          -38 419 456 rmoveto
          20 -9 -18 9 -29 hhcurveto
          -221 -29 callsubr
          221 hlineto
          29 18 9 20 9 hvcurveto
          -29 154 669 -154 vlineto
          232 hmoveto
          344 callsubr
          -528 -610 0 callgsubr
          134 hlineto
          25 11 -9 -23 hvcurveto
          -303 184 callsubr
          endchar
        </CharString>
        <CharString name="dcroat">
          -61 252 59 0 callgsubr
          134 hlineto
          25 11 -9 -23 hvcurveto
          -303 184 callsubr
          260 540 rmoveto
          -69 70 -155 -70 -184 -59 184 -85 hlineto
          20 -8 -17 10 -31 hhcurveto
          -221 -29 callsubr
          221 hlineto
          31 17 10 20 8 hvcurveto
          -30 155 540 69 vlineto
          endchar
        </CharString>
        <CharString name="degree">
          -105 549 544 rmoveto
          53 -26 25 -52 vhcurveto
          -334 hlineto
          -52 -26 -25 -53 hvcurveto
          -148 vlineto
          -53 26 -25 52 vhcurveto
          334 hlineto
          52 26 25 53 hvcurveto
          -146 10 32 callsubr
          -134 -68 callgsubr
          128 vlineto
          26 5 5 26 302 callgsubr
          endchar
        </CharString>
        <CharString name="dieresis">
          -65 379 640 250 callgsubr
          174 109 vlineto
          endchar
        </CharString>
        <CharString name="divide">
          -22 347 callgsubr
          212 150 rmoveto
          -90 160 90 vlineto
          -160 -311 rmoveto
          -90 160 90 vlineto
          endchar
        </CharString>
        <CharString name="dollar">
          -44 252 343 330 callsubr
          158 -45 callsubr
          159 -59 callsubr
          -96 158 107 -57 callgsubr
          -112 92 -156 -92 -112 116 callgsubr
          273 -59 callsubr
          -163 -14 callgsubr
          -160 -68 callgsubr
          96 -159 -107 -75 callsubr
          110 -91 156 91 115 -54 callsubr
          185 -57 callgsubr
          endchar
        </CharString>
        <CharString name="dotaccent">
          -65 242 526 rmoveto
          166 113 -166 hlineto
          endchar
        </CharString>
        <CharString name="dotlessi">
          -397 80 485 rmoveto
          -485 155 485 vlineto
          endchar
        </CharString>
        <CharString name="dottedcircle">
          -52 139 517 rmoveto
          -26 18 -19 26 26 18 19 26 25 -18 19 -26 -26 -18 -19 -25 vhcurveto
          -82 -110 rmoveto
          -25 20 -19 26 24 20 19 25 25 -20 19 -24 -26 -20 -19 -25 vhcurveto
          -13 -126 rmoveto
          -25 19 -18 25 26 18 18 346 callgsubr
          52 -116 rmoveto
          -26 18 -18 26 25 19 18 26 25 -19 19 -25 -26 -18 -19 -25 vhcurveto
          101 -75 rmoveto
          -26 19 -20 26 25 19 20 26 24 -19 20 -25 -26 -19 -20 -24 vhcurveto
          127 -16 rmoveto
          -26 18 -18 26 26 19 18 26 26 -19 18 -26 -26 -18 -18 -26 vhcurveto
          121 53 rmoveto
          -26 19 -18 25 25 20 18 26 25 -20 19 -25 -25 -19 -19 -25 vhcurveto
          73 98 rmoveto
          -25 19 -19 26 24 19 19 25 26 -19 19 -24 -26 -19 -19 -26 vhcurveto
          10 134 rmoveto
          -26 18 -18 26 25 19 18 26 26 -19 18 -25 -26 -18 -18 -26 vhcurveto
          -50 118 rmoveto
          -25 19 -19 25 26 18 19 346 callgsubr
          -95 68 rmoveto
          -24 19 -20 26 25 18 20 24 26 -18 19 -25 -26 -19 -19 -26 vhcurveto
          -126 15 rmoveto
          -26 18 -18 26 26 18 18 26 26 -18 18 -26 -26 -18 -18 -26 vhcurveto
          endchar
        </CharString>
        <CharString name="doubledanda">
          77 164 hmoveto
          163 622 -163 hlineto
          367 -622 rmoveto
          162 622 -162 hlineto
          endchar
        </CharString>
        <CharString name="dvA">
          363 1095 2 callgsubr
          -289 -69 callgsubr
          122 vlineto
          endchar
        </CharString>
        <CharString name="dvAA">
          723 1455 2 callgsubr
          -649 -69 callgsubr
          193 337 callgsubr
        </CharString>
        <CharString name="dvAI">
          66 798 2 callgsubr
          -106 194 callsubr
          -552 33 callgsubr
        </CharString>
        <CharString name="dvAU">
          751 1482 2 callgsubr
          -123 hlineto
          -41 211 rlineto
          -120 93 callgsubr
          -348 -69 callgsubr
          187 337 callgsubr
        </CharString>
        <CharString name="dvAbbreviationsign">
          -50 435 219 rmoveto
          -63 callsubr
          -147 hlineto
          -26 -7 -96 callgsubr
          124 -102 callgsubr
          147 -47 callsubr
          -278 89 245 callsubr
          -148 -105 callgsubr
          344 -95 callgsubr
          148 -43 callgsubr
          endchar
        </CharString>
        <CharString name="dvAcandra">
          363 1095 2 callgsubr
          -289 -69 callgsubr
          122 vlineto
          -87 289 rmoveto
          62 callgsubr
          400 -95 callgsubr
          90 vlineto
          endchar
        </CharString>
        <CharString name="dvAnusvara">
          -712 -268 687 298 callgsubr
        </CharString>
        <CharString name="dvAnusvara.amI">
          -712 74 680 298 callgsubr
        </CharString>
        <CharString name="dvAvagraha">
          -4 284 374 rmoveto
          -26 -7 6 26 hvcurveto
          125 -5 callsubr
          343 59 -465 -19 callgsubr
          -154 263 callsubr
          268 hlineto
          26 7 -7 -26 hvcurveto
          -191 185 callgsubr
          -143 hlineto
          -26 -7 -96 callgsubr
          86 -166 -99 200 callsubr
          387 hlineto
          254 callgsubr
          219 vlineto
          53 -25 25 -53 vhcurveto
          endchar
        </CharString>
        <CharString name="dvB">
          -251 518 2 callgsubr
          -538 -59 538 hlineto
          -277 -288 rmoveto
          52 -5 56 0 vhcurveto
          321 -246 rlineto
          -284 -102 callsubr
          334 -32 rmoveto
          5 41 -319 248 rlineto
          248 59 -356 -82 callgsubr
          446 59 hlineto
          endchar
        </CharString>
        <CharString name="dvBA">
          111 273 137 47 callgsubr
          -863 -59 574 -246 hlineto
          137 callgsubr
        </CharString>
        <CharString name="dvBH">
          14 122 callgsubr
          391 59 rmoveto
          -225 174 hlineto
          -42 callgsubr
          225 vlineto
          endchar
        </CharString>
        <CharString name="dvBHA">
          374 122 callgsubr
          629 310 rmoveto
          -288 -251 -175 174 hlineto
          -42 callgsubr
          175 -312 124 callsubr
        </CharString>
        <CharString name="dvBH_LA">
          1146 122 callgsubr
          1401 310 rmoveto
          -1136 -59 846 -78 -240 228 callgsubr
          -324 -19 callgsubr
          -37 -177 174 vlineto
          -42 callgsubr
          177 -235 31 callgsubr
          185 -426 167 130 callgsubr
        </CharString>
        <CharString name="dvBH_NA">
          1084 1199 281 callgsubr
          -168 -107 callgsubr
          201 hlineto
          -722 -258 25 callsubr
          1339 310 rmoveto
          -1098 -59 809 -78 282 callsubr
          -37 -161 174 vlineto
          -42 callgsubr
          161 -157 123 callsubr
        </CharString>
        <CharString name="dvBH_R">
          8 458 -85 rmoveto
          198 hlineto
          280 238 -8 128 rlineto
          -454 -86 141 callsubr
          163 59 rmoveto
          151 -43 callgsubr
          -394 80 callgsubr
          -82 167 68 182 callgsubr
          -137 319 callgsubr
          -136 -105 callgsubr
          399 -95 callgsubr
          153 302 59 vlineto
          endchar
        </CharString>
        <CharString name="dvBH_RA">
          365 474 195 141 callsubr
          623 287 rmoveto
          -281 -228 -179 151 hlineto
          -28 callsubr
          -394 80 callgsubr
          -82 167 68 182 callgsubr
          -137 319 callgsubr
          -136 -105 callgsubr
          399 -95 callgsubr
          153 179 -133 101 callgsubr
          -5 -61 -47 vvcurveto
          -21 153 623 -52 callgsubr
        </CharString>
        <CharString name="dvBH_R_YA">
          1001 1444 174 -105 callsubr
          -976 -339 rmoveto
          -24 -7 46 callgsubr
          -169 hlineto
          -26 -7 8 24 hvcurveto
          111 -102 callgsubr
          202 hlineto
          1265 255 rmoveto
          -1006 -59 347 hlineto
          -81 callgsubr
          -189 hlineto
          39 -6 -26 19 -45 hhcurveto
          -178 119 hlineto
          -28 callsubr
          -394 -19 callgsubr
          -66 167 52 vlineto
          25 6 161 callgsubr
          -105 139 callgsubr
          -138 200 callsubr
          399 hlineto
          53 24 25 53 hvcurveto
          156 146 vlineto
          -36 callsubr
          -180 vlineto
          -339 -258 rlineto
          198 hlineto
          219 180 rlineto
          524 199 callgsubr
          270 callgsubr
        </CharString>
        <CharString name="dvBH_VA">
          792 122 callgsubr
          1047 310 rmoveto
          -780 -59 492 -392 hlineto
          -62 callgsubr
          -53 -24 -24 -53 hvcurveto
          -37 -183 174 vlineto
          -42 callgsubr
          183 318 callsubr
          99 callsubr
        </CharString>
        <CharString name="dvBH_YA">
          993 1437 174 79 callsubr
          142 222 vlineto
          254 callgsubr
          142 210 callgsubr
          -960 -395 rmoveto
          -24 -7 46 callgsubr
          -169 hlineto
          -26 -7 8 24 hvcurveto
          111 -102 callgsubr
          202 hlineto
          1248 311 rmoveto
          -987 -59 328 43 callsubr
          -128 vlineto
          -25 -7 46 callgsubr
          -423 175 hlineto
          5 callsubr
          -161 -314 vlineto
          -53 -24 -23 -53 hvcurveto
          -139 184 callgsubr
          156 157 -156 -105 callgsubr
          525 hlineto
          17 11 3 10 7 hvcurveto
          -91 124 callsubr
        </CharString>
        <CharString name="dvB_BA">
          595 757 235 callgsubr
          -731 hmoveto
          -22 callsubr
          801 485 rmoveto
          -1347 -59 1058 216 callgsubr
          -356 -19 callgsubr
          -213 vlineto
          171 callsubr
          369 -45 callgsubr
        </CharString>
        <CharString name="dvB_BHA">
          849 415 2 callgsubr
          -435 -59 435 hlineto
          537 -395 25 callsubr
          -679 -175 rmoveto
          -22 callsubr
          1055 485 rmoveto
          -288 -251 -175 174 hlineto
          5 callsubr
          -160 139 callgsubr
          -100 vlineto
          -300 232 33 callsubr
          111 callgsubr
          175 -312 124 callsubr
        </CharString>
        <CharString name="dvB_BH_RA">
          830 404 2 callgsubr
          -424 -59 424 hlineto
          535 -368 141 callsubr
          -666 -198 149 callsubr
          1047 485 rmoveto
          -282 -228 -178 151 hlineto
          53 -25 -2 callsubr
          -394 -19 callgsubr
          -82 167 68 183 callgsubr
          -137 319 callgsubr
          -123 235 callsubr
          372 hlineto
          34 22 10 22 10 hvcurveto
          -3 10 11 -2 14 hhcurveto
          398 hlineto
          254 callgsubr
          153 178 -133 vlineto
          -358 -287 rlineto
          199 hlineto
          171 301 callgsubr
          154 623 -52 callgsubr
        </CharString>
        <CharString name="dvB_DA">
          514 273 137 rmoveto
          -22 callsubr
          592 289 284 callsubr
          -1266 -59 972 -78 139 callgsubr
          -214 vlineto
          -300 232 33 callsubr
          -4 callsubr
          endchar
        </CharString>
        <CharString name="dvB_DHA">
          776 427 2 callgsubr
          -447 -59 447 hlineto
          -154 -426 rmoveto
          -22 callsubr
          982 485 rmoveto
          -288 138 callsubr
          -426 hlineto
          -58 callgsubr
          -71 vlineto
          -300 232 33 callsubr
          136 callsubr
        </CharString>
        <CharString name="dvB_DH_VA">
          1153 467 2 callgsubr
          -487 -59 487 hlineto
          -194 -426 149 callsubr
          1370 485 rmoveto
          -735 -59 446 92 callsubr
          -238 vlineto
          -24 -8 -9 -26 vhcurveto
          -403 hlineto
          -26 -7 -96 callgsubr
          98 vlineto
          26 -80 callsubr
          132 59 -132 10 callsubr
          140 vlineto
          25 7 -29 callgsubr
          -156 vlineto
          -6 callgsubr
          -71 170 callgsubr
          529 23 callsubr
          300 -45 callgsubr
        </CharString>
        <CharString name="dvB_JA">
          837 273 137 rmoveto
          -22 callsubr
          1043 485 rmoveto
          -1589 -59 1300 159 callgsubr
          -291 vlineto
          -300 232 33 callsubr
          248 callsubr
        </CharString>
        <CharString name="dvB_JHA">
          872 1316 331 rmoveto
          -551 hlineto
          91 callgsubr
          178 hlineto
          -1043 -426 rmoveto
          -22 callsubr
          1078 485 rmoveto
          -1624 -59 992 -78 -329 80 callgsubr
          253 callgsubr
          296 74 callgsubr
          -208 53 -165 hlineto
          -305 236 214 callsubr
          -81 171 78 331 164 callgsubr
          99 232 callsubr
          179 -272 166 105 callgsubr
        </CharString>
        <CharString name="dvB_J_YA">
          1466 273 137 149 callsubr
          768 348 rmoveto
          -343 -316 hlineto
          -25 44 callgsubr
          -164 -102 callsubr
          316 -162 -290 235 callsubr
          366 -58 callsubr
          398 hlineto
          254 callgsubr
          271 181 vlineto
          627 -252 rmoveto
          -28 -10 -9 -28 vhcurveto
          -389 283 callgsubr
          211 vlineto
          -74 callgsubr
          144 210 callgsubr
          294 callgsubr
          -2218 -59 1560 hlineto
          193 callgsubr
          124 callsubr
        </CharString>
        <CharString name="dvB_JxA">
          826 742 -105 -32 callgsubr
          -469 124 149 callsubr
          1043 485 rmoveto
          -1578 -59 1289 159 callgsubr
          -291 170 callgsubr
          248 callsubr
        </CharString>
        <CharString name="dvB_LA">
          886 273 137 rmoveto
          -22 callsubr
          1092 485 rmoveto
          -1638 -59 1349 -78 67 callgsubr
          -323 -19 callgsubr
          -214 vlineto
          -300 232 136 callgsubr
          3 9 hvcurveto
          -5 -61 callgsubr
        </CharString>
        <CharString name="dvB_L_YA">
          1506 273 137 149 callsubr
          797 348 rmoveto
          -234 hlineto
          97 callgsubr
          -4 hlineto
          13 callgsubr
          -323 -19 callgsubr
          -214 vlineto
          -289 232 264 callsubr
          366 hlineto
          12 10 334 callgsubr
          -5 147 callsubr
          179 hlineto
          637 -252 -72 callgsubr
          -2258 -59 1599 hlineto
          -94 callsubr
          123 vlineto
          endchar
        </CharString>
        <CharString name="dvB_NA">
          840 956 281 callgsubr
          -168 -107 callgsubr
          201 hlineto
          -683 -289 7 callgsubr
          105 71 callgsubr
          315 -239 rlineto
          -4 -5 -8 -2 -12 hhcurveto
          1047 485 rmoveto
          -1593 -59 1304 -78 282 callsubr
          -213 vlineto
          -300 231 rlineto
          248 59 -356 hlineto
          -53 -24 -24 -53 hvcurveto
          -253 vlineto
          -53 24 -24 53 vhcurveto
          377 90 callsubr
        </CharString>
        <CharString name="dvB_R">
          -249 483 2 callgsubr
          -503 -59 503 hlineto
          63 -414 rmoveto
          -273 246 callgsubr
          101 vlineto
          52 -5 55 0 vhcurveto
          346 -240 rmoveto
          1 34 -315 243 rlineto
          241 59 -356 -19 callgsubr
          -241 -105 callgsubr
          226 hlineto
          -146 -162 rlineto
          178 hlineto
          151 183 rlineto
          41 38 hlineto
          endchar
        </CharString>
        <CharString name="dvB_RA">
          111 273 149 243 callgsubr
          321 473 rmoveto
          -863 -59 574 -226 hlineto
          -96 9 -50 0 vhcurveto
          -295 235 rlineto
          241 59 -356 -19 callgsubr
          191 callsubr
        </CharString>
        <CharString name="dvB_SA">
          856 1299 339 rmoveto
          -180 hlineto
          -84 callsubr
          192 hlineto
          -1026 -426 rmoveto
          -22 callsubr
          1063 485 rmoveto
          -1609 -59 941 hlineto
          -44 callsubr
          -7 -26 vhcurveto
          -194 137 -167 -281 hlineto
          -299 231 214 callsubr
          -4 vlineto
          -37 callgsubr
        </CharString>
        <CharString name="dvB_SHA">
          852 415 2 callgsubr
          -435 -59 435 hlineto
          -142 -426 rmoveto
          -22 callsubr
          114 485 178 callsubr
          -178 hlineto
          -299 231 214 callsubr
          -4 92 callgsubr
        </CharString>
        <CharString name="dvB_TA">
          552 273 137 rmoveto
          -22 callsubr
          758 485 rmoveto
          -1304 -59 1016 -78 -358 -19 callgsubr
          -214 vlineto
          -300 232 136 callgsubr
          3 9 hvcurveto
          -5 -87 callgsubr
          236 -426 111 callsubr
        </CharString>
        <CharString name="dvB_VA">
          526 273 137 rmoveto
          -22 callsubr
          733 485 rmoveto
          -1279 -59 990 -392 hlineto
          -62 callgsubr
          -53 -24 -24 -53 hvcurveto
          -213 vlineto
          171 callsubr
          301 -31 callsubr
          563 123 vlineto
          endchar
        </CharString>
        <CharString name="dvB_YA">
          754 1197 174 -105 callsubr
          -924 -426 rmoveto
          -22 callsubr
          960 485 rmoveto
          -1506 -59 847 hlineto
          -83 callgsubr
          -173 hlineto
          171 callsubr
          37 callgsubr
          270 callgsubr
        </CharString>
        <CharString name="dvC">
          -245 542 2 callgsubr
          -562 -59 562 hlineto
          -237 -426 rmoveto
          -9 callgsubr
          429 59 hlineto
          endchar
        </CharString>
        <CharString name="dvCA">
          133 865 2 callgsubr
          -885 -59 596 -392 hlineto
          -26 -8 -8 -26 vhcurveto
          -237 hlineto
          -9 callgsubr
          361 -93 callsubr
          -24 callsubr
          vlineto
          endchar
        </CharString>
        <CharString name="dvCH">
          337 1069 563 rmoveto
          59 -1089 -59 124 vlineto
          -8 -6 -4 -10 -17 vvcurveto
          -160 32 callgsubr
          53 -24 24 -53 vhcurveto
          -355 -75 callgsubr
          endchar
        </CharString>
        <CharString name="dvCHA">
          340 629 485 rmoveto
          -96 -75 callgsubr
          338 hlineto
          443 hmoveto
          59 -1092 -59 124 vlineto
          -8 -6 -4 -10 -17 vvcurveto
          -160 32 callgsubr
          53 -24 24 -53 vhcurveto
          -101 78 hlineto
          endchar
        </CharString>
        <CharString name="dvCH_RA">
          340 633 485 rmoveto
          -100 71 callsubr
          342 hlineto
          439 hmoveto
          59 -1092 -59 124 vlineto
          95 callsubr
          53 -24 24 -53 vhcurveto
          -101 78 hlineto
          endchar
        </CharString>
        <CharString name="dvCH_R_YA">
          1285 1728 174 rmoveto
          -28 -10 -9 -27 141 callgsubr
          -947 71 callsubr
          1437 hlineto
          120 callgsubr
          -2037 -59 124 hlineto
          95 callsubr
          6 0 6 -1 6 vhcurveto
          394 hlineto
          17 callsubr
        </CharString>
        <CharString name="dvCH_YA">
          1293 1736 202 callsubr
          -587 -1 hlineto
          1 -4 -4 0 -5 hhcurveto
          -355 -75 callgsubr
          1445 hlineto
          120 callgsubr
          -2045 -59 124 hlineto
          -8 -6 -4 -10 -17 vvcurveto
          -160 32 callgsubr
          6 0 6 -1 6 vhcurveto
          402 hlineto
          17 callsubr
        </CharString>
        <CharString name="dvC_CA">
          611 1343 2 callgsubr
          -1363 -59 1065 -392 306 callgsubr
          -236 hlineto
          -26 -7 -96 callgsubr
          225 129 callgsubr
          -394 -59 88 hlineto
          -9 150 callsubr
          -223 78 callsubr
          -236 -102 callsubr
          225 vlineto
          24 6 7 23 1 vhcurveto
          118 59 -398 288 callgsubr
          362 23 callsubr
          360 -93 callsubr
          167 563 131 vlineto
          endchar
        </CharString>
        <CharString name="dvC_CHA">
          832 1122 485 rmoveto
          -96 -75 callgsubr
          338 hlineto
          443 hmoveto
          59 -1585 -59 617 242 callgsubr
          -76 274 callgsubr
          -245 hlineto
          -9 callgsubr
          371 hlineto
          12 10 334 callgsubr
          -5 -105 callgsubr
          719 -95 callgsubr
          331 -43 callgsubr
          -101 78 hlineto
          endchar
        </CharString>
        <CharString name="dvC_CH_VA">
          828 1136 485 rmoveto
          -117 -19 callgsubr
          -142 -105 callgsubr
          183 59 -78 331 callsubr
          115 52 callsubr
          -278 -61 callsubr
          -499 19 callgsubr
          132 -22 callgsubr
          119 59 -119 52 callgsubr
          363 hlineto
          -209 -703 rmoveto
          35 callgsubr
          101 -22 callgsubr
          214 -131 306 callgsubr
          453 703 rmoveto
          59 -1580 -59 607 vlineto
          -9 166 callsubr
          -76 78 callsubr
          -235 hlineto
          -9 callgsubr
          361 hlineto
          12 11 1 3 8 hvcurveto
          -39 6 24 -18 46 hhcurveto
          99 hlineto
          -9 150 callsubr
          -115 263 callsubr
          295 -91 callsubr
          -53 144 268 90 vlineto
          -74 callgsubr
          306 -43 callgsubr
          -85 78 hlineto
          endchar
        </CharString>
        <CharString name="dvC_MA">
          854 1299 485 339 callsubr
          -343 -394 rmoveto
          -63 callsubr
          -169 -107 callgsubr
          201 hlineto
          630 196 rmoveto
          -1606 -59 976 -78 -313 145 callgsubr
          -227 hlineto
          -9 callgsubr
          353 181 callgsubr
        </CharString>
        <CharString name="dvC_NA">
          853 968 169 -10 callsubr
          617 196 rmoveto
          -1605 -59 1316 -78 -646 145 callgsubr
          -234 hlineto
          -9 callgsubr
          360 157 callsubr
          166 -34 callgsubr
        </CharString>
        <CharString name="dvC_R">
          -231 -20 563 rmoveto
          521 59 -521 hlineto
          42 -196 rmoveto
          97 303 callsubr
          -223 -105 callgsubr
          206 hlineto
          -159 -163 rlineto
          182 hlineto
          171 181 rlineto
          40 41 -318 -102 callsubr
          210 96 callgsubr
          hlineto
          endchar
        </CharString>
        <CharString name="dvC_RA">
          133 865 2 callgsubr
          -885 -59 596 -377 306 callgsubr
          -237 -102 callsubr
          210 77 callgsubr
          -5 -4 -11 -17 vvcurveto
          -223 -105 callgsubr
          206 hlineto
          -159 -163 rlineto
          182 hlineto
          164 174 rlineto
          -104 -77 callsubr
        </CharString>
        <CharString name="dvC_YA">
          755 1199 174 -72 callgsubr
          -1508 -59 849 29 callgsubr
          -223 hlineto
          -9 callgsubr
          349 -19 callsubr
          123 vlineto
          endchar
        </CharString>
        <CharString name="dvCandrabindu">
          -712 -339 685 rmoveto
          399 hlineto
          54 20 27 51 hvcurveto
          89 -140 -76 -85 callgsubr
          -204 -102 callsubr
          76 -140 -89 vlineto
          -51 20 -27 55 vhcurveto
          147 123 rmoveto
          103 97 -103 hlineto
          endchar
        </CharString>
        <CharString name="dvD">
          29 456 -61 62 callsubr
          -644 683 rmoveto
          107 callsubr
          358 137 128 59 hlineto
          endchar
        </CharString>
        <CharString name="dvDA">
          29 633 426 284 callsubr
          -781 107 callsubr
          endchar
        </CharString>
        <CharString name="dvDA_mvR">
          30 633 98 callsubr
          129 59 -782 -59 487 -78 -314 -25 callgsubr
          291 -93 callsubr
          -133 vlineto
          196 callsubr
          325 59 -205 hlineto
          173 callsubr
          180 325 -167 -95 hlineto
          8 callgsubr
          endchar
        </CharString>
        <CharString name="dvDD">
          10 277 -61 62 callsubr
          176 487 329 callsubr
          -763 -59 474 -78 -294 250 callsubr
          -71 callgsubr
        </CharString>
        <CharString name="dvDDA">
          11 621 281 callsubr
          -763 -59 474 -78 -294 250 callsubr
          -71 callgsubr
        </CharString>
        <CharString name="dvDDH">
          54 293 -61 62 callsubr
          169 487 rmoveto
          137 156 59 -806 -59 484 -78 -299 vlineto
          -27 callgsubr
          endchar
        </CharString>
        <CharString name="dvDDHA">
          54 630 98 callsubr
          156 59 -806 -59 484 -78 -299 vlineto
          -27 callgsubr
          endchar
        </CharString>
        <CharString name="dvDDH_DDHA">
          77 666 98 callsubr
          143 59 -829 -59 519 -78 -331 vlineto
          -53 -24 -25 -53 hvcurveto
          -205 vlineto
          -42 18 -17 30 callgsubr
          -18 -40 vvcurveto
          -200 263 callsubr
          457 333 callgsubr
          73 -43 callgsubr
          -164 -61 54 -41 callsubr
          -43 vlineto
          -25 255 callgsubr
          -224 331 callsubr
          189 -102 callgsubr
          334 -95 callgsubr
          71 106 callgsubr
          -164 -61 54 -41 callsubr
          -42 -61 callsubr
          -224 hlineto
          -26 -7 -96 callgsubr
          189 vlineto
          25 7 8 26 vhcurveto
          endchar
        </CharString>
        <CharString name="dvDDH_R">
          56 303 -201 62 callsubr
          159 627 rmoveto
          137 158 59 -808 -59 484 -78 -299 310 callsubr
          94 335 callgsubr
          67 -143 rlineto
          160 hlineto
          -95 162 rlineto
          83 134 callgsubr
        </CharString>
        <CharString name="dvDDH_RA">
          56 630 98 callsubr
          158 59 -808 -59 484 -78 -299 310 callsubr
          86 54 callsubr
          76 134 callgsubr
        </CharString>
        <CharString name="dvDDH_YA">
          1008 1451 174 128 callgsubr
          -28 141 callgsubr
          -573 78 821 hlineto
          120 callgsubr
          -1760 -59 484 -78 -299 hlineto
          -27 callgsubr
          794 hlineto
          17 callsubr
        </CharString>
        <CharString name="dvDDHxA">
          54 324 -183 -32 callgsubr
          306 491 rmoveto
          137 156 59 -806 -59 484 -78 -299 vlineto
          -27 callgsubr
          endchar
        </CharString>
        <CharString name="dvDD_DDA">
          28 635 323 callgsubr
          -780 -59 488 -78 -307 3 callsubr
          -40 200 callsubr
          298 43 callsubr
          -53 185 callgsubr
          -172 10 callsubr
          40 -167 -47 230 callgsubr
          -18 vlineto
          -53 25 -25 53 vhcurveto
          298 43 callsubr
          -54 vlineto
          -26 44 callgsubr
          -173 hlineto
          -26 -7 -96 callgsubr
          35 -166 -49 -105 callgsubr
          417 -95 callgsubr
          83 -43 callgsubr
          -298 305 callsubr
          12 -5 callsubr
          295 -95 callgsubr
          82 305 callgsubr
          -299 hlineto
          341 callsubr
          12 328 callsubr
        </CharString>
        <CharString name="dvDD_DDHA">
          27 635 98 callsubr
          124 59 -779 -59 488 -78 -307 3 callsubr
          -43 263 callsubr
          299 hlineto
          26 7 -7 -26 hvcurveto
          -56 185 callgsubr
          -173 hlineto
          -26 -7 -96 callgsubr
          40 -167 -50 vlineto
          -41 19 -18 106 callsubr
          -19 -18 -41 hvcurveto
          -188 vlineto
          -53 25 -23 53 vhcurveto
          414 333 callgsubr
          76 106 callgsubr
          -155 -61 46 -47 callsubr
          -47 vlineto
          -25 286 callsubr
          -183 331 callsubr
          185 -102 callgsubr
          296 -38 callgsubr
          84 vlineto
          53 -23 25 -53 vhcurveto
          -300 19 callgsubr
          14 328 callsubr
        </CharString>
        <CharString name="dvDD_R">
          15 278 -200 rmoveto
          123 -165 294 callsubr
          -125 165 rlineto
          176 626 103 callsubr
          72 335 callgsubr
          63 -143 rlineto
          160 hlineto
          -91 162 rlineto
          70 207 callsubr
        </CharString>
        <CharString name="dvDD_RA">
          15 622 426 103 callsubr
          64 hlineto
          -91 -163 rlineto
          159 hlineto
          71 149 66 -149 rlineto
          160 hlineto
          -88 163 rlineto
          64 207 callsubr
        </CharString>
        <CharString name="dvDD_VA">
          51 281 -101 rmoveto
          -26 -7 6 25 hvcurveto
          97 -102 callgsubr
          208 -126 306 callgsubr
          197 527 rmoveto
          137 131 59 -803 -59 505 -78 -319 165 callgsubr
          -65 -14 callsubr
          314 hlineto
          -56 callgsubr
          -84 201 callgsubr
          -190 hlineto
          -26 -7 -96 callgsubr
          54 -166 -55 vlineto
          -41 18 -19 30 callgsubr
          -16 -42 vvcurveto
          -108 vlineto
          -53 23 -23 53 vhcurveto
          290 -91 callsubr
          -47 144 261 vlineto
          31 8 14 24 41 vvcurveto
          112 1 callgsubr
          -314 305 callsubr
          36 -5 callsubr
          endchar
        </CharString>
        <CharString name="dvDD_YA">
          968 1411 104 callgsubr
          -540 78 789 hlineto
          120 callgsubr
          -1720 -59 476 -78 -295 -19 callgsubr
          -79 vlineto
          -53 24 319 callsubr
          -7 -26 hvcurveto
          -128 201 callgsubr
          -160 hlineto
          -26 -7 -96 callgsubr
          80 -167 -94 vlineto
          3 callgsubr
          157 308 callsubr
          51 -5 callsubr
          756 249 callsubr
          -255 -156 hlineto
          -107 callsubr
          267 callsubr
        </CharString>
        <CharString name="dvDDxA">
          11 305 -183 -32 callgsubr
          316 491 329 callsubr
          -763 -59 474 -78 -294 250 callsubr
          -71 callgsubr
        </CharString>
        <CharString name="dvDH">
          -50 285 137 rmoveto
          -83 callsubr
          659 59 hlineto
          endchar
        </CharString>
        <CharString name="dvDHA">
          301 1033 2 callgsubr
          -288 138 callsubr
          -426 hlineto
          -83 callsubr
          136 callsubr
        </CharString>
        <CharString name="dvDH_MA">
          1026 1470 485 339 callsubr
          -343 -394 -10 callsubr
          631 196 rmoveto
          -1068 -59 437 -78 -313 145 callgsubr
          -418 hlineto
          -83 callsubr
          544 109 callgsubr
          123 vlineto
          endchar
        </CharString>
        <CharString name="dvDH_NA">
          1016 1131 64 callgsubr
          -1062 -59 773 -78 -646 145 callgsubr
          -417 hlineto
          -83 callsubr
          543 -58 callsubr
          -46 callgsubr
        </CharString>
        <CharString name="dvDH_N_YA">
          1648 1125 169 -10 callsubr
          331 hmoveto
          59 -649 vlineto
          125 callsubr
          -411 hlineto
          -83 callsubr
          537 110 callgsubr
          23 24 53 hvcurveto
          271 vlineto
          805 -252 -72 callgsubr
          -1710 -59 1051 hlineto
          -94 callsubr
          123 vlineto
          endchar
        </CharString>
        <CharString name="dvDH_R">
          -54 285 152 rmoveto
          41 callsubr
          -143 156 callsubr
          379 hlineto
          -183 -163 rlineto
          202 hlineto
          188 178 rlineto
          44 44 hlineto
          endchar
        </CharString>
        <CharString name="dvDH_RA">
          301 1033 2 callgsubr
          -288 -436 306 callgsubr
          -426 hlineto
          41 callsubr
          -143 156 callsubr
          376 hlineto
          -183 -163 rlineto
          205 hlineto
          184 174 rlineto
          -104 124 callsubr
        </CharString>
        <CharString name="dvDH_VA">
          689 1421 2 callgsubr
          -735 -59 447 155 callgsubr
          -403 hlineto
          -83 callsubr
          529 203 callsubr
        </CharString>
        <CharString name="dvDH_YA">
          926 1370 20 callsubr
          294 callgsubr
          -979 -59 321 29 callgsubr
          -414 hlineto
          -83 callsubr
          540 203 callgsubr
        </CharString>
        <CharString name="dvD_BA">
          65 483 -49 rmoveto
          -5 hlineto
          -197 -102 callsubr
          36 vlineto
          57 -5 50 0 vhcurveto
          268 22 rmoveto
          -61 vlineto
          -57 3 -47 0 vhcurveto
          -3 2 rlineto
          1 vlineto
          -1 vlineto
          -218 163 rlineto
          375 278 284 callsubr
          -817 -59 523 -78 -341 3 callsubr
          -168 vlineto
          312 callgsubr
          -146 -105 callgsubr
          318 -91 callsubr
          -62 165 485 -165 -118 -229 vlineto
          -26 -7 -96 callgsubr
          155 -102 callgsubr
          endchar
        </CharString>
        <CharString name="dvD_BHA">
          257 861 426 284 callsubr
          -1009 -59 715 -78 -310 3 callsubr
          -213 -105 callgsubr
          288 hlineto
          14 11 2 7 7 hvcurveto
          -127 166 274 -166 -67 vlineto
          -23 -1 -9 -7 -24 hhcurveto
          -168 -102 callsubr
          185 -103 callsubr
          -302 -231 rmoveto
          49 -20 26 -54 vhcurveto
          -113 -58 20 hlineto
          26 5 -9 -24 hvcurveto
          -255 136 76 413 59 -413 vlineto
          endchar
        </CharString>
        <CharString name="dvD_B_RA">
          65 490 4 rmoveto
          -211 hlineto
          -26 -7 -96 callgsubr
          27 vlineto
          65 -4 28 0 vhcurveto
          272 20 rmoveto
          -41 vlineto
          -59 4 -46 0 vhcurveto
          -241 146 rlineto
          394 250 rmoveto
          137 126 59 -817 -59 525 -78 -345 165 callgsubr
          -140 vlineto
          -41 19 -18 253 callsubr
          -19 -17 -41 vvcurveto
          -121 -14 callsubr
          175 hlineto
          -140 -147 rlineto
          178 hlineto
          141 158 rlineto
          -85 165 452 -165 -89 -234 vlineto
          -103 callgsubr
          114 vlineto
          25 6 20 26 vhcurveto
          endchar
        </CharString>
        <CharString name="dvD_DA">
          115 720 98 callsubr
          127 59 -867 -59 574 -78 -386 3 callsubr
          -74 vlineto
          -41 18 -18 38 -1 208 callgsubr
          369 -91 callsubr
          -72 167 224 -167 -68 vlineto
          -31 callgsubr
          -245 329 callgsubr
          103 -103 callsubr
          177 59 -177 -102 callsubr
          60 298 callsubr
        </CharString>
        <CharString name="dvD_DHA">
          274 180 118 rmoveto
          257 callsubr
          58 59 -157 hlineto
          171 callgsubr
          698 339 284 callsubr
          -1026 -59 732 -78 -310 165 callgsubr
          -204 vlineto
          140 callgsubr
        </CharString>
        <CharString name="dvD_GA">
          290 callgsubr
          -303 -25 callgsubr
          8 -86 hlineto
          -25 44 callgsubr
          -37 -59 140 hlineto
          254 callgsubr
          100 124 vlineto
          -91 callgsubr
          -226 167 405 301 callsubr
          -156 -107 callgsubr
          endchar
        </CharString>
        <CharString name="dvD_GHA">
          274 878 426 284 callsubr
          -1026 -59 732 -78 -310 165 callgsubr
          -59 -214 vlineto
          171 callgsubr
          31 vlineto
          257 callsubr
          115 -86 hlineto
          140 callgsubr
        </CharString>
        <CharString name="dvD_G_RA">
          290 callgsubr
          -308 -25 callgsubr
          9 -95 hlineto
          -25 44 callgsubr
          -38 -59 137 hlineto
          53 28 -78 callgsubr
          109 142 vlineto
          -91 callgsubr
          -81 vlineto
          -293 -237 rlineto
          169 hlineto
          74 63 rlineto
          37 30 20 27 0 0 -7 -35 -53 vvcurveto
          -38 149 503 -149 303 callgsubr
          -174 -86 callsubr
          endchar
        </CharString>
        <CharString name="dvD_MA">
          387 836 171 rmoveto
          -186 156 -161 -95 306 callgsubr
          -178 241 callgsubr
          363 137 196 hlineto
          283 59 rmoveto
          -1139 -59 493 -78 -318 313 callgsubr
          302 -91 callsubr
          -117 161 81 186 -130 161 581 -52 callgsubr
        </CharString>
        <CharString name="dvD_NA">
          24 756 2 callgsubr
          -776 -59 492 -78 -319 -19 callgsubr
          -223 200 callsubr
          307 -91 callsubr
          -89 -284 3 callsubr
          -68 157 54 -102 callgsubr
          171 -109 147 416 -147 -75 306 callgsubr
          -183 hlineto
          -26 -7 -96 callgsubr
          196 -102 callgsubr
          364 137 117 hlineto
          endchar
        </CharString>
        <CharString name="dvD_R">
          30 644 hmoveto
          266 -167 -80 177 callgsubr
          -6 7 25 hvcurveto
          210 -103 callsubr
          358 137 128 59 -782 -59 488 -78 -314 -19 callgsubr
          102 callgsubr
          153 hlineto
          -119 -163 rlineto
          173 hlineto
          116 173 rlineto
          -103 vlineto
          176 -130 rmoveto
          -168 hlineto
          122 -165 294 callsubr
          endchar
        </CharString>
        <CharString name="dvD_RA">
          30 634 426 284 callsubr
          -782 -59 488 -78 139 callgsubr
          46 callsubr
        </CharString>
        <CharString name="dvD_VA">
          69 514 234 callsubr
          386 268 rmoveto
          137 130 59 -821 -59 525 -78 -341 3 callsubr
          114 callgsubr
        </CharString>
        <CharString name="dvD_YA">
          287 730 155 rmoveto
          -31 callgsubr
          -410 -102 callsubr
          69 -103 callsubr
          173 59 -173 -102 callsubr
          49 -103 callsubr
          271 137 173 hlineto
          120 callgsubr
          -1039 -59 411 -78 -227 -19 callgsubr
          -62 vlineto
          -41 18 -18 38 -1 332 callsubr
          -18 -41 vvcurveto
          -82 200 callsubr
          534 -91 callsubr
          -76 167 568 -52 callgsubr
        </CharString>
        <CharString name="dvE">
          66 798 2 callgsubr
          -818 33 callgsubr
        </CharString>
        <CharString name="dvEcandra">
          66 599 685 rmoveto
          -74 callgsubr
          90 -159 62 callgsubr
          599 -63 rmoveto
          -818 33 callgsubr
        </CharString>
        <CharString name="dvEight">
          -3 473 373 rmoveto
          -23 -8 -10 -25 vhcurveto
          -171 hlineto
          292 callsubr
          158 vlineto
          24 6 8 26 vhcurveto
          174 hlineto
          26 6 -8 -24 hvcurveto
          -440 vmoveto
          -25 -7 -7 -25 vhcurveto
          -174 246 callgsubr
          157 vlineto
          24 8 9 24 vhcurveto
          173 hlineto
          25 8 -9 -24 hvcurveto
          161 294 rmoveto
          47 -18 33 -57 vhcurveto
          -410 hlineto
          -56 -19 -33 -47 hvcurveto
          -151 vlineto
          -50 25 -28 47 -1 vhcurveto
          -3 vlineto
          -46 -1 -26 -23 -50 vvcurveto
          -154 vlineto
          -48 19 -33 56 vhcurveto
          410 hlineto
          57 18 33 48 hvcurveto
          154 vlineto
          50 -25 23 -47 1 vhcurveto
          3 vlineto
          47 1 25 28 50 vvcurveto
          endchar
        </CharString>
        <CharString name="dvEyelash">
          -52 760 2 callgsubr
          -780 -59 780 hlineto
          -166 -116 rmoveto
          -47 -85 callgsubr
          -359 hlineto
          -26 -7 -96 callgsubr
          47 -162 -61 -105 callgsubr
          599 -95 callgsubr
          61 vlineto
          endchar
        </CharString>
        <CharString name="dvEyelash_HA">
          310 918 98 callsubr
          124 59 -1062 -59 771 -78 -304 3 callsubr
          -49 -167 vlineto
          -26 -7 7 26 hvcurveto
          46 -162 -61 -105 callgsubr
          307 hlineto
          -5 8 12 -3 14 hhcurveto
          -5 271 callgsubr
          -150 -105 callgsubr
          488 59 -366 -102 callsubr
          142 -22 callgsubr
          177 hlineto
          26 7 -8 -24 hvcurveto
          -91 158 100 vlineto
          56 -30 26 -56 vhcurveto
          -282 19 callgsubr
          38 298 callsubr
        </CharString>
        <CharString name="dvEyelash_YA">
          533 976 174 -72 callgsubr
          -1285 -59 626 hlineto
          -81 callgsubr
          -403 hlineto
          -26 -7 -96 callgsubr
          47 -162 -61 -105 callgsubr
          254 -154 hlineto
          243 callsubr
        </CharString>
        <CharString name="dvFive">
          20 258 391 rmoveto
          172 381 59 -548 -290 361 vlineto
          26 5 -8 -24 hvcurveto
          -209 vlineto
          -24 -5 46 callgsubr
          -162 hlineto
          -26 -5 8 24 hvcurveto
          118 -167 -131 vlineto
          -48 19 -30 56 vhcurveto
          408 hlineto
          56 18 33 48 hvcurveto
          232 vlineto
          48 -18 30 -56 vhcurveto
          endchar
        </CharString>
        <CharString name="dvFour">
          13 679 169 rmoveto
          -93 157 -155 -157 -216 hlineto
          224 453 rlineto
          -165 hlineto
          -221 -438 rlineto
          -74 378 -110 155 110 93 vlineto
          endchar
        </CharString>
        <CharString name="dvG">
          13 252 137 rmoveto
          -68 callsubr
          288 485 rmoveto
          -765 -59 205 callsubr
          vlineto
          endchar
        </CharString>
        <CharString name="dvGA">
          382 252 137 rmoveto
          -68 callsubr
          657 485 rmoveto
          -1134 -59 -71 callsubr
          170 -563 270 callgsubr
        </CharString>
        <CharString name="dvGH">
          -214 287 200 callgsubr
          118 14 callgsubr
          287 59 -594 -59 121 hlineto
          20 callgsubr
          488 59 hlineto
          endchar
        </CharString>
        <CharString name="dvGHA">
          170 613 171 rmoveto
          -31 callgsubr
          -292 60 callgsubr
          326 hlineto
          120 callgsubr
          -922 -59 121 hlineto
          20 callgsubr
          416 -45 callgsubr
        </CharString>
        <CharString name="dvGH_MA">
          893 1338 485 339 callsubr
          -343 -394 rmoveto
          -63 callsubr
          -169 -107 callgsubr
          201 hlineto
          -390 -256 rmoveto
          -1 186 callgsubr
          -283 60 callgsubr
          708 197 callgsubr
          1020 214 rmoveto
          -1645 -59 121 hlineto
          20 callgsubr
          409 247 callsubr
          176 323 callsubr
          vlineto
          endchar
        </CharString>
        <CharString name="dvGH_NA">
          885 1328 485 rmoveto
          290 callsubr
          -283 60 callgsubr
          1041 hlineto
          -328 -394 rmoveto
          -25 44 callgsubr
          -168 -107 callgsubr
          201 hlineto
          617 196 rmoveto
          -1637 -59 121 hlineto
          20 callgsubr
          409 90 callsubr
        </CharString>
        <CharString name="dvGH_R">
          -194 91 410 rmoveto
          -42 18 -17 38 -2 208 callgsubr
          260 hlineto
          -165 -163 rlineto
          184 hlineto
          173 178 rlineto
          40 44 -370 -102 callsubr
          103 14 callgsubr
          248 59 -558 -59 124 303 callsubr
          endchar
        </CharString>
        <CharString name="dvGH_RA">
          173 616 186 rmoveto
          -31 callgsubr
          -292 -102 callsubr
          103 14 callgsubr
          326 hlineto
          120 callgsubr
          -925 -59 124 303 callsubr
          -120 vlineto
          -42 18 -17 38 -2 208 callgsubr
          263 hlineto
          -165 -163 rlineto
          181 hlineto
          169 174 rlineto
          -104 -77 callsubr
        </CharString>
        <CharString name="dvGH_YA">
          798 1241 174 -105 callsubr
          -954 -426 7 callgsubr
          118 14 callgsubr
          584 29 callgsubr
          960 485 rmoveto
          -1550 -59 121 hlineto
          20 callgsubr
          409 -19 callsubr
          123 vlineto
          endchar
        </CharString>
        <CharString name="dvG_BA">
          841 1003 235 callgsubr
          -998 hmoveto
          -68 callsubr
          1116 485 rmoveto
          -1593 -59 -71 callsubr
          629 -246 vlineto
          137 callgsubr
        </CharString>
        <CharString name="dvG_BHA">
          1122 89 callsubr
          1245 -454 25 callsubr
          629 310 rmoveto
          -288 -251 -175 174 hlineto
          -42 callgsubr
          175 -312 124 callsubr
        </CharString>
        <CharString name="dvG_BH_YA">
          1712 28 callsubr
          2175 -448 128 callgsubr
          -29 vhcurveto
          -389 -102 callsubr
          143 211 vlineto
          -74 callgsubr
          141 210 callgsubr
          -950 295 callsubr
          112 302 callsubr
          1239 310 rmoveto
          -961 -59 302 hlineto
          -56 callgsubr
          -128 -85 callgsubr
          -413 174 hlineto
          -28 callsubr
          -399 -19 callgsubr
          -101 167 87 183 callgsubr
          -160 -313 149 callgsubr
          157 -157 vlineto
          49 callsubr
        </CharString>
        <CharString name="dvG_DA">
          758 252 137 rmoveto
          -68 callsubr
          906 289 284 callsubr
          -1511 -59 509 254 callsubr
          3 callsubr
          -194 -105 callgsubr
          436 -38 callgsubr
          408 542 -78 -314 vlineto
          -53 -24 -24 -53 hvcurveto
          -253 140 callsubr
        </CharString>
        <CharString name="dvG_DHA">
          1047 89 callsubr
          1799 hmoveto
          -288 138 callsubr
          -426 hlineto
          -83 callsubr
          136 callsubr
        </CharString>
        <CharString name="dvG_DH_VA">
          1424 28 callsubr
          2176 hmoveto
          -730 -59 442 155 callgsubr
          -408 69 callsubr
          534 203 callsubr
        </CharString>
        <CharString name="dvG_DH_YA">
          1635 28 callsubr
          2098 -448 169 callsubr
          -945 -59 286 hlineto
          -81 callgsubr
          -256 -198 186 callgsubr
          -403 69 callsubr
          529 -58 callsubr
          267 callsubr
        </CharString>
        <CharString name="dvG_GA">
          1115 985 137 rmoveto
          -68 callsubr
          -938 hmoveto
          -68 callsubr
          1390 485 rmoveto
          -1867 -59 -71 callsubr
          567 254 callsubr
          3 callsubr
          -194 -105 callgsubr
          436 -38 callgsubr
          408 170 -563 270 callgsubr
        </CharString>
        <CharString name="dvG_GHA">
          898 1341 171 rmoveto
          -31 callgsubr
          -292 60 callgsubr
          326 hlineto
          -1089 -426 rmoveto
          -68 callsubr
          1173 485 rmoveto
          -1650 -59 -71 callsubr
          174 vlineto
          20 callgsubr
          416 -45 callgsubr
        </CharString>
        <CharString name="dvG_JA">
          1097 252 137 rmoveto
          -68 callsubr
          1372 485 rmoveto
          -1849 -59 -71 callsubr
          885 -78 -329 -316 vlineto
          -87 callsubr
          167 117 callgsubr
          vlineto
          endchar
        </CharString>
        <CharString name="dvG_LA">
          1147 252 137 rmoveto
          -68 callsubr
          1422 485 rmoveto
          -1899 -59 -71 callsubr
          935 -78 -240 vlineto
          97 callgsubr
          -4 hlineto
          13 callgsubr
          -323 -19 callgsubr
          -331 -61 callgsubr
        </CharString>
        <CharString name="dvG_MA">
          1105 1550 485 339 callsubr
          -343 -394 rmoveto
          -63 callsubr
          -169 -107 callgsubr
          201 hlineto
          -955 -289 rmoveto
          -68 callsubr
          1380 485 rmoveto
          -1857 -59 -71 callsubr
          552 -78 -313 vlineto
          -53 -24 -24 -53 hvcurveto
          9 callgsubr
        </CharString>
        <CharString name="dvG_NA">
          1075 1191 281 callgsubr
          -168 -107 callgsubr
          201 hlineto
          -939 -289 rmoveto
          -68 callsubr
          1351 485 rmoveto
          -1828 -59 -71 callsubr
          864 -78 -646 vlineto
          -53 -24 -24 -53 hvcurveto
          -253 123 callsubr
        </CharString>
        <CharString name="dvG_NNA">
          1110 1211 169 -24 callgsubr
          -959 -426 rmoveto
          -68 callsubr
          1385 485 rmoveto
          -1862 -59 -71 callsubr
          166 207 callgsubr
        </CharString>
        <CharString name="dvG_N_YA">
          1737 1212 169 -10 callsubr
          332 hmoveto
          59 -650 -25 callgsubr
          403 -38 callgsubr
          271 vlineto
          808 -252 -105 callsubr
          -1929 -426 rmoveto
          -68 callsubr
          2013 485 rmoveto
          -2490 -59 -71 callsubr
          1156 vlineto
          -94 callsubr
          123 vlineto
          endchar
        </CharString>
        <CharString name="dvG_R">
          91 callsubr
          233 77 rmoveto
          -413 -344 rlineto
          196 hlineto
          277 253 rlineto
          endchar
        </CharString>
        <CharString name="dvG_RA">
          371 246 164 57 callgsubr
        </CharString>
        <CharString name="dvG_R_YA">
          996 1439 174 -105 callsubr
          -1193 -399 66 callsubr
          1277 458 rmoveto
          -1748 47 callsubr
          381 425 vlineto
          -83 callgsubr
          -171 hlineto
          -338 -282 rlineto
          196 hlineto
          184 168 rlineto
          -3 10 11 -2 14 hhcurveto
          -20 callsubr
          123 vlineto
          endchar
        </CharString>
        <CharString name="dvG_SA">
          1117 1560 339 rmoveto
          -180 hlineto
          -84 callsubr
          192 hlineto
          -1308 -426 rmoveto
          -68 callsubr
          1393 485 rmoveto
          -1870 -59 -71 callsubr
          527 vlineto
          -101 callsubr
          572 -280 167 563 123 vlineto
          endchar
        </CharString>
        <CharString name="dvG_VA">
          777 252 137 rmoveto
          -68 callsubr
          1052 485 rmoveto
          -1529 -59 -71 callsubr
          565 -392 vlineto
          -62 callgsubr
          -53 -24 -24 -53 hvcurveto
          134 callsubr
        </CharString>
        <CharString name="dvG_YA">
          987 1430 174 -105 callsubr
          -1178 -426 rmoveto
          -68 callsubr
          1262 485 rmoveto
          -1739 -59 -71 callsubr
          405 vlineto
          -94 callsubr
          123 vlineto
          endchar
        </CharString>
        <CharString name="dvGx">
          15 272 -105 -32 callgsubr
          -20 124 rmoveto
          -68 callsubr
          290 485 rmoveto
          -767 -59 509 254 callsubr
          214 callgsubr
          -193 -105 callgsubr
          436 -38 callgsubr
          408 92 vlineto
          endchar
        </CharString>
        <CharString name="dvGxA">
          382 274 -105 -32 callgsubr
          -22 124 rmoveto
          -68 callsubr
          657 485 rmoveto
          -1134 -59 -71 callsubr
          170 -563 270 callgsubr
        </CharString>
        <CharString name="dvGx_R">
          91 callsubr
          293 -14 rmoveto
          -60 91 -413 -344 rlineto
          196 hlineto
          -39 -190 298 callgsubr
        </CharString>
        <CharString name="dvGx_RA">
          335 627 -275 -32 callgsubr
          -381 321 57 callgsubr
        </CharString>
        <CharString name="dvH">
          11 843 265 rmoveto
          59 -551 vlineto
          -26 -7 6 26 hvcurveto
          38 -102 callgsubr
          348 137 174 59 -834 -59 494 -78 -304 80 callgsubr
          -57 21 callsubr
          -150 -14 callsubr
          487 59 -365 199 callsubr
          -5 callsubr
          endchar
        </CharString>
        <CharString name="dvHA">
          237 callgsubr
          -57 21 callsubr
          -150 -21 callsubr
        </CharString>
        <CharString name="dvHA_mU">
          42 649 426 rmoveto
          137 125 59 -794 -59 502 -78 -312 vlineto
          219 callgsubr
          315 hlineto
          26 8 -9 -24 hvcurveto
          -99 78 callsubr
          -134 hlineto
          -23 -7 8 20 -12 hvcurveto
          -42 75 rlineto
          -162 hlineto
          59 -98 rlineto
          -59 35 21 -5 70 hhcurveto
          314 hlineto
          53 22 22 53 hvcurveto
          133 vlineto
          53 -22 22 -53 vhcurveto
          -312 hlineto
          -26 -7 -96 callgsubr
          132 -5 callsubr
          185 hlineto
          26 7 -8 -24 hvcurveto
          -89 158 98 vlineto
          56 -29 26 -57 vhcurveto
          -290 10 callsubr
          38 -102 callgsubr
          endchar
        </CharString>
        <CharString name="dvHA_mUU">
          42 679 5 rmoveto
          59 -35 -21 5 -70 hhcurveto
          -261 hlineto
          -26 -7 -96 callgsubr
          132 -5 callsubr
          185 hlineto
          26 7 -8 -24 hvcurveto
          -91 158 100 vlineto
          56 -29 26 -57 vhcurveto
          -290 10 callsubr
          38 -102 callgsubr
          357 196 callgsubr
          hlineto
          219 callgsubr
          18 hlineto
          -1 -5 0 -5 -6 vvcurveto
          282 callgsubr
          225 59 -110 hlineto
          173 callsubr
          115 334 callsubr
          161 hlineto
          endchar
        </CharString>
        <CharString name="dvHA_mvR">
          237 callgsubr
          -54 21 callsubr
          -188 vlineto
          -53 25 -26 53 vhcurveto
          496 59 -374 hlineto
          -26 -7 10 25 hvcurveto
          179 -5 callsubr
          189 hlineto
          16 13 -4 -14 hvcurveto
          -25 -44 -50 -38 vvcurveto
          -38 25 -16 45 vhcurveto
          140 58 -32 hlineto
          -15 -8 3 10 hvcurveto
          25 45 52 37 vvcurveto
          44 -30 15 -46 vhcurveto
          -298 10 callsubr
          35 -102 callgsubr
          endchar
        </CharString>
        <CharString name="dvH_LA">
          172 748 98 callsubr
          156 59 -924 -59 601 -78 -411 165 callgsubr
          -37 21 callsubr
          -250 -14 callsubr
          600 59 -478 hlineto
          -26 -7 -96 callgsubr
          242 -5 callsubr
          363 hlineto
          26 6 -8 -24 hvcurveto
          -8 -89 vlineto
          -24 -9 -10 -19 -3 hvcurveto
          -4 hlineto
          21 -2 -12 8 -26 hhcurveto
          -136 hlineto
          -35 -16 -16 -34 hvcurveto
          -125 vlineto
          -35 16 -15 35 vhcurveto
          127 44 -58 hlineto
          -17 -4 5 16 hvcurveto
          94 vlineto
          17 4 4 17 vhcurveto
          38 hlineto
          17 4 -4 -17 hvcurveto
          -72 100 72 vlineto
          17 4 4 17 vhcurveto
          56 -180 112 242 hlineto
          56 -29 26 -57 vhcurveto
          -421 10 callsubr
          18 -102 callgsubr
          endchar
        </CharString>
        <CharString name="dvH_MA">
          419 862 249 rmoveto
          -194 3 hlineto
          56 -29 26 -57 vhcurveto
          -290 10 callsubr
          28 -102 callgsubr
          357 137 213 hlineto
          120 callgsubr
          -1171 -59 502 -78 -312 80 callgsubr
          -47 21 callsubr
          -160 -14 callsubr
          487 59 -365 hlineto
          -26 -7 -96 callgsubr
          152 -5 callsubr
          185 hlineto
          26 7 -8 -24 hvcurveto
          -111 158 58 194 -190 -77 callsubr
        </CharString>
        <CharString name="dvH_NA">
          89 667 98 callsubr
          154 59 -841 -59 520 -78 -330 165 callgsubr
          -47 21 callsubr
          -229 -14 callsubr
          506 59 -384 hlineto
          -26 -7 -96 callgsubr
          221 -5 callsubr
          264 hlineto
          26 7 -8 -24 hvcurveto
          -38 -169 3 callsubr
          -59 126 45 -102 callgsubr
          87 -98 126 204 hlineto
          56 -30 26 -56 vhcurveto
          -337 10 callsubr
          28 -102 callgsubr
          endchar
        </CharString>
        <CharString name="dvH_NNA">
          165 414 285 rmoveto
          87 -104 hlineto
          -16 -3 -3 -17 vhcurveto
          -48 hlineto
          -16 -3 3 16 hvcurveto
          326 245 rmoveto
          137 157 59 -917 -59 593 -78 -403 165 callgsubr
          -37 21 callsubr
          -170 -14 callsubr
          591 59 -469 hlineto
          -26 -7 -96 callgsubr
          162 -5 callsubr
          41 -117 hlineto
          -45 20 -20 43 vhcurveto
          122 hlineto
          44 20 20 45 hvcurveto
          117 39 vlineto
          26 6 -8 -24 hvcurveto
          -102 137 111 vlineto
          56 -29 26 -57 vhcurveto
          -412 10 callsubr
          18 -102 callgsubr
          endchar
        </CharString>
        <CharString name="dvH_RA">
          95 707 98 callsubr
          120 59 -847 -59 560 -78 -370 165 callgsubr
          -52 230 callgsubr
          -155 -14 callsubr
          536 59 -414 hlineto
          -26 -7 -96 callgsubr
          146 -5 callsubr
          178 hlineto
          -106 -140 rlineto
          91 hlineto
          100 135 rlineto
          6 -5 2 -8 -14 vvcurveto
          -102 158 112 vlineto
          55 -29 26 -57 vhcurveto
          -343 305 callsubr
          33 -102 callgsubr
          endchar
        </CharString>
        <CharString name="dvH_VA">
          93 703 281 callsubr
          -845 -59 556 -78 -366 165 callgsubr
          -36 vlineto
          -41 19 -19 38 vhcurveto
          -4 vlineto
          -38 -1 -19 -18 -41 vvcurveto
          -228 -14 callsubr
          546 59 -424 hlineto
          -26 -7 13 24 hvcurveto
          214 vlineto
          26 -80 callsubr
          276 hlineto
          26 6 -8 -25 hvcurveto
          -127 vlineto
          -18 -5 -5 -17 vhcurveto
          -134 hlineto
          -17 -4 4 17 hvcurveto
          55 vlineto
          17 4 4 17 vhcurveto
          122 39 -186 hlineto
          -36 -16 -16 -35 hvcurveto
          -73 vlineto
          -35 16 -17 36 vhcurveto
          199 hlineto
          10 6 2 4 5 hvcurveto
          -35 113 229 vlineto
          56 -29 26 -57 vhcurveto
          -335 10 callsubr
          17 -102 callgsubr
          endchar
        </CharString>
        <CharString name="dvH_YA">
          420 863 222 rmoveto
          -31 callgsubr
          -165 hlineto
          9 6 4 10 17 vvcurveto
          43 vlineto
          56 -30 26 -56 vhcurveto
          -299 10 callsubr
          16 -102 callgsubr
          366 137 205 hlineto
          120 callgsubr
          -1172 -59 511 -78 -321 80 callgsubr
          -35 230 callgsubr
          -172 -14 callsubr
          505 59 -383 hlineto
          -26 -7 -96 callgsubr
          163 vlineto
          26 -80 callsubr
          194 hlineto
          26 7 -8 -25 hvcurveto
          -34 -61 callsubr
          -79 -59 424 -91 callsubr
          -138 -77 callsubr
        </CharString>
        <CharString name="dvI">
          29 652 98 callsubr
          109 59 -781 81 callgsubr
        </CharString>
        <CharString name="dvII">
          30 653 98 callsubr
          109 59 -138 322 callsubr
          89 59 -211 -19 callgsubr
          -134 -476 81 callgsubr
        </CharString>
        <CharString name="dvII_Anusvara">
          30 604 760 rmoveto
          241 callsubr
          118 59 -244 hlineto
          -53 -22 -22 -53 hvcurveto
          -155 -456 -59 506 -78 -330 3 callsubr
          -66 -105 callgsubr
          311 hlineto
          -56 callgsubr
          -64 201 callgsubr
          -210 53 -174 -190 174 78 332 -95 callgsubr
          92 -43 callgsubr
          -311 hlineto
          -26 -6 6 26 hvcurveto
          38 345 callgsubr
          109 59 -158 hlineto
          65 132 rmoveto
          -94 94 94 vlineto
          endchar
        </CharString>
        <CharString name="dvJ">
          4 825 2 callgsubr
          -845 -59 845 hlineto
          52 -78 rmoveto
          40 callgsubr
          238 vlineto
          endchar
        </CharString>
        <CharString name="dvJA">
          363 1095 2 callgsubr
          -1115 -59 826 -78 -329 -66 callsubr
          167 117 callgsubr
          vlineto
          endchar
        </CharString>
        <CharString name="dvJH">
          10 888 331 rmoveto
          -605 hlineto
          91 callgsubr
          166 59 -842 5 callgsubr
          228 hlineto
          endchar
        </CharString>
        <CharString name="dvJHA">
          390 834 331 rmoveto
          -551 hlineto
          91 callgsubr
          178 hlineto
          294 callgsubr
          -1142 -59 510 -78 -329 80 callgsubr
          253 callgsubr
          296 74 callgsubr
          -208 53 -171 -190 171 78 331 -38 callgsubr
          99 232 callsubr
          179 -272 166 105 callgsubr
        </CharString>
        <CharString name="dvJH_MA">
          1126 1570 485 339 callsubr
          -343 -394 rmoveto
          -63 callsubr
          -169 -107 callgsubr
          201 hlineto
          -390 -95 rmoveto
          -554 hlineto
          91 callgsubr
          571 197 callgsubr
          1020 214 rmoveto
          -1877 5 callgsubr
          177 -117 hlineto
          -8 callsubr
        </CharString>
        <CharString name="dvJH_NA">
          1102 1545 485 rmoveto
          282 callsubr
          -77 -539 vlineto
          91 callgsubr
          889 hlineto
          -328 -394 rmoveto
          -25 44 callgsubr
          -168 -107 callgsubr
          201 hlineto
          617 196 rmoveto
          -1854 5 callgsubr
          162 -117 hlineto
          81 callsubr
        </CharString>
        <CharString name="dvJH_R">
          59 657 254 rmoveto
          185 callsubr
          283 59 -655 19 callgsubr
          31 345 callgsubr
          133 59 -811 -59 511 -78 -329 -19 callgsubr
          -59 -105 callgsubr
          296 74 callgsubr
          -207 53 -171 -190 171 78 330 -38 callgsubr
          274 75 rmoveto
          -400 -315 rlineto
          198 hlineto
          226 200 rlineto
          endchar
        </CharString>
        <CharString name="dvJH_RA">
          418 869 331 rmoveto
          -585 19 callgsubr
          31 345 callgsubr
          211 hlineto
          281 59 rmoveto
          -1170 -59 511 -78 -329 -19 callgsubr
          -59 -105 callgsubr
          296 74 callgsubr
          -207 53 -171 -190 171 78 330 -38 callgsubr
          99 232 callsubr
          213 -87 hlineto
          -338 -270 rlineto
          198 hlineto
          151 136 rlineto
          0 -5 -43 -47 vvcurveto
          -21 153 623 -52 callgsubr
        </CharString>
        <CharString name="dvJH_YA">
          1024 1467 174 -105 callsubr
          -637 -232 rmoveto
          -547 hlineto
          91 callgsubr
          441 hlineto
          -83 callgsubr
          hlineto
          926 254 rmoveto
          -1776 5 callgsubr
          170 -117 238 callgsubr
        </CharString>
        <CharString name="dvJ_BA">
          835 997 137 47 callgsubr
          -1587 -59 1298 216 callgsubr
          -756 -66 callsubr
          162 vlineto
          22 callgsubr
          369 -45 callgsubr
        </CharString>
        <CharString name="dvJ_DA">
          751 1356 426 284 callsubr
          -1504 -59 1210 -78 -713 -316 vlineto
          -87 callsubr
          161 vlineto
          -1 -6 0 -6 -6 vvcurveto
          -253 140 callsubr
        </CharString>
        <CharString name="dvJ_DDA">
          728 1338 281 callsubr
          -1480 -59 1191 -78 -694 -316 vlineto
          -87 callsubr
          162 75 callsubr
        </CharString>
        <CharString name="dvJ_JA">
          1085 1817 2 callgsubr
          -1837 -59 1548 61 callgsubr
          -493 -316 vlineto
          -87 callsubr
          170 -271 vlineto
          -53 24 -24 53 vhcurveto
          248 callsubr
        </CharString>
        <CharString name="dvJ_JHA">
          1109 1553 331 rmoveto
          -551 10 callsubr
          31 -5 callsubr
          374 137 177 hlineto
          294 callgsubr
          -1861 -59 1229 -78 -732 -66 callsubr
          164 vlineto
          -53 callgsubr
          253 callgsubr
          296 74 callgsubr
          -208 53 -171 -190 171 78 331 -95 callgsubr
          99 232 callsubr
          178 -272 166 105 callgsubr
        </CharString>
        <CharString name="dvJ_J_NYA">
          1070 1803 2 callgsubr
          -1823 -59 1534 -78 -1037 -66 callsubr
          160 vlineto
          -53 callgsubr
          26 callsubr
          -276 hlineto
          341 callsubr
          39 -22 callgsubr
          517 -426 166 130 callgsubr
        </CharString>
        <CharString name="dvJ_J_VA">
          1481 2213 2 callgsubr
          -2233 -59 1944 -392 hlineto
          -79 callgsubr
          -675 2 callsubr
          -493 -316 vlineto
          -87 callsubr
          170 277 callsubr
          154 vlineto
          -12 callgsubr
        </CharString>
        <CharString name="dvJ_J_YA">
          1727 1532 485 rmoveto
          -333 2 callsubr
          -493 -316 vlineto
          -87 callsubr
          170 277 callsubr
          171 vlineto
          638 -252 -72 callgsubr
          -2479 -59 1820 hlineto
          -94 callsubr
          123 vlineto
          endchar
        </CharString>
        <CharString name="dvJ_KA">
          1100 1832 563 rmoveto
          59 -1852 -59 1206 132 callsubr
          -257 hlineto
          -2 0 40 callgsubr
          164 vlineto
          -1 -6 0 -6 -6 vvcurveto
          -253 -69 callsubr
        </CharString>
        <CharString name="dvJ_MA">
          1089 1534 485 339 callsubr
          -343 -394 rmoveto
          -63 callsubr
          -169 -107 callgsubr
          201 hlineto
          630 196 rmoveto
          -1841 -59 1211 -78 -313 hlineto
          -1 hlineto
          40 callgsubr
          163 vlineto
          -1 -6 0 -6 -6 vvcurveto
          9 callgsubr
        </CharString>
        <CharString name="dvJ_NA">
          1072 1187 64 callgsubr
          -1824 -59 1535 -78 -1038 -66 callsubr
          154 vlineto
          -1 -6 0 -6 -6 vvcurveto
          -253 123 callsubr
        </CharString>
        <CharString name="dvJ_NY">
          2 814 2 callgsubr
          -834 -59 834 hlineto
          75 -137 rmoveto
          59 -723 3 callsubr
          26 callsubr
          -276 hlineto
          341 callsubr
          39 328 callsubr
        </CharString>
        <CharString name="dvJ_NYA">
          362 1094 2 callgsubr
          -1114 -59 825 -78 -639 -19 callgsubr
          26 callsubr
          -276 hlineto
          341 callsubr
          39 -22 callgsubr
          517 -426 166 130 callgsubr
        </CharString>
        <CharString name="dvJ_NY_YA">
          985 288 322 rmoveto
          341 callsubr
          39 -22 callgsubr
          519 59 -641 -19 callgsubr
          26 callsubr
          878 -148 -72 callgsubr
          -1751 -59 1092 hlineto
          -94 callsubr
          123 vlineto
          endchar
        </CharString>
        <CharString name="dvJ_R">
          327 callgsubr
          -95 -137 rmoveto
          307 59 -467 51 callgsubr
          288 105 rmoveto
          -474 -372 rlineto
          198 hlineto
          299 259 rlineto
          endchar
        </CharString>
        <CharString name="dvJ_RA">
          357 1089 2 callgsubr
          -1109 -59 828 -78 -332 51 callgsubr
          244 172 -224 101 callgsubr
          -6 -61 -47 vvcurveto
          -21 154 623 -52 callgsubr
        </CharString>
        <CharString name="dvJ_TA">
          792 1524 2 callgsubr
          -1544 -59 1256 -78 -358 hlineto
          -1 hlineto
          40 callgsubr
          163 vlineto
          -30 callgsubr
        </CharString>
        <CharString name="dvJ_TTA">
          745 1343 426 284 callgsubr
          -1497 -59 1197 -78 -297 vlineto
          -3 0 40 callgsubr
          165 vlineto
          -53 callgsubr
          -331 -67 callsubr
        </CharString>
        <CharString name="dvJ_VA">
          775 1507 2 callgsubr
          -1527 -59 1238 -392 hlineto
          -79 callgsubr
          -691 -66 callsubr
          170 vlineto
          -12 callgsubr
        </CharString>
        <CharString name="dvJ_YA">
          1008 814 426 rmoveto
          59 -337 -316 vlineto
          -87 callsubr
          vlineto
          812 -252 -72 callgsubr
          -1760 -59 1101 hlineto
          -92 callgsubr
          -24 callsubr
          vlineto
          endchar
        </CharString>
        <CharString name="dvJx">
          -1 820 2 callgsubr
          -840 -59 840 hlineto
          -540 -668 -32 callgsubr
          597 472 rmoveto
          40 callgsubr
          238 vlineto
          endchar
        </CharString>
        <CharString name="dvJxA">
          363 275 -105 -32 callgsubr
          820 609 rmoveto
          -1115 -59 826 -78 -329 -66 callsubr
          167 117 callgsubr
          vlineto
          endchar
        </CharString>
        <CharString name="dvJx_JxA">
          1086 280 -105 -32 callgsubr
          717 -118 -32 callgsubr
          821 609 rmoveto
          -1838 -59 1549 61 callgsubr
          -494 -316 vlineto
          -87 callsubr
          171 -271 vlineto
          -53 24 -24 53 vhcurveto
          248 callsubr
        </CharString>
        <CharString name="dvJx_R">
          327 callgsubr
          -527 -643 -32 callgsubr
          432 388 rmoveto
          307 59 -467 51 callgsubr
          288 105 rmoveto
          -474 -372 rlineto
          198 hlineto
          299 259 rlineto
          endchar
        </CharString>
        <CharString name="dvJx_RA">
          350 198 -104 -32 callgsubr
          891 608 rmoveto
          -1109 -59 828 -78 -332 51 callgsubr
          244 172 -224 101 callgsubr
          -6 -61 -47 vvcurveto
          -21 154 623 -52 callgsubr
        </CharString>
        <CharString name="dvJx_YA">
          1003 279 -132 -32 callgsubr
          531 440 rmoveto
          59 -333 -316 vlineto
          -87 callsubr
          vlineto
          808 -252 76 callsubr
          223 vlineto
          -74 callgsubr
          144 210 callgsubr
          294 callgsubr
          -1755 -59 1097 hlineto
          -94 callsubr
          122 vlineto
          endchar
        </CharString>
        <CharString name="dvK">
          24 658 485 177 callsubr
          186 59 -832 -59 480 132 callsubr
          -257 hlineto
          -53 -24 -24 -53 hvcurveto
          -97 callsubr
          242 59 hlineto
          endchar
        </CharString>
        <CharString name="dvKA">
          374 1106 563 rmoveto
          59 -1126 -59 480 132 callsubr
          -257 hlineto
          -53 -24 -24 -53 hvcurveto
          -253 -69 callsubr
        </CharString>
        <CharString name="dvKH">
          306 254 229 rmoveto
          258 hlineto
          68 callgsubr
          478 59 -1087 -59 445 -243 -85 callgsubr
          -139 168 348 callgsubr
          506 59 -383 -102 callsubr
          632 87 rmoveto
          168 callsubr
          154 -41 callgsubr
          -181 -105 callgsubr
          382 58 hlineto
          endchar
        </CharString>
        <CharString name="dvKHA">
          650 1382 2 callgsubr
          -1402 -59 445 -243 hlineto
          -25 -6 -7 -26 vhcurveto
          -139 168 -167 -379 59 callgsubr
        </CharString>
        <CharString name="dvKH_KHA">
          1663 2395 2 callgsubr
          -2415 -80 callgsubr
          849 -243 -85 callgsubr
          -139 168 -167 -244 186 callgsubr
          -180 -27 callsubr
          290 188 callsubr
          -46 vlineto
          -38 callsubr
        </CharString>
        <CharString name="dvKH_MA">
          1383 1828 485 339 callsubr
          -343 -394 rmoveto
          -63 callsubr
          -169 -107 callgsubr
          201 hlineto
          630 196 rmoveto
          -2135 -80 callgsubr
          896 -78 -313 3 callsubr
          -196 78 callsubr
          -30 callsubr
          13 11 334 callgsubr
          -31 9 24 -15 41 hhcurveto
          14 callsubr
        </CharString>
        <CharString name="dvKH_NA">
          1388 1502 169 -10 callsubr
          618 196 rmoveto
          -2140 -80 callgsubr
          1241 -78 -646 3 callsubr
          -196 vlineto
          -24 -8 -10 -26 vhcurveto
          -187 -11 callgsubr
          297 hlineto
          13 11 334 callgsubr
          -31 9 24 -15 41 hhcurveto
          326 callgsubr
          -426 167 82 callgsubr
        </CharString>
        <CharString name="dvKH_R">
          113 callsubr
          632 92 123 callgsubr
        </CharString>
        <CharString name="dvKH_RA">
          650 1382 2 callgsubr
          -1402 -59 445 -239 hlineto
          -25 -6 -7 -26 vhcurveto
          -139 164 -167 -379 -7 callgsubr
        </CharString>
        <CharString name="dvKH_SHA">
          1387 254 229 rmoveto
          258 hlineto
          68 callgsubr
          347 59 -956 -7 callsubr
        </CharString>
        <CharString name="dvKH_TA">
          1075 1807 2 callgsubr
          -1827 -80 callgsubr
          930 -78 -358 165 callgsubr
          -196 78 callsubr
          -163 192 callsubr
          273 188 callsubr
          -46 vlineto
          -53 25 259 callgsubr
          236 -426 111 callsubr
        </CharString>
        <CharString name="dvKH_VA">
          1061 1793 2 callgsubr
          -1813 -80 callgsubr
          915 -392 vlineto
          -62 callgsubr
          -53 -24 -24 -53 hvcurveto
          -208 vlineto
          152 callsubr
          13 11 334 callgsubr
          -31 8 24 -15 41 hhcurveto
          301 24 callsubr
        </CharString>
        <CharString name="dvKH_YA">
          1289 1732 174 -72 callgsubr
          -2041 -80 callgsubr
          773 vlineto
          -83 callgsubr
          -156 186 callgsubr
          -30 callsubr
          13 11 334 callgsubr
          -31 9 24 -15 41 hhcurveto
          268 callgsubr
        </CharString>
        <CharString name="dvKHx">
          297 423 -183 -32 callgsubr
          -169 294 rmoveto
          258 hlineto
          68 callgsubr
          469 59 -1078 -59 445 -243 -85 callgsubr
          -139 168 348 callgsubr
          506 59 -383 -102 callsubr
          632 87 rmoveto
          168 callsubr
          154 -41 callgsubr
          -181 -105 callgsubr
          374 58 hlineto
          endchar
        </CharString>
        <CharString name="dvKHxA">
          650 450 -183 -32 callgsubr
          932 687 rmoveto
          -1402 -59 445 -243 hlineto
          -25 -6 -7 -26 vhcurveto
          -139 168 -167 -379 59 callgsubr
        </CharString>
        <CharString name="dvKHx_MA">
          1384 138 callgsubr
          1405 562 166 callgsubr
          -2136 -80 callgsubr
          897 -78 139 callgsubr
          -196 78 callsubr
          -30 callsubr
          13 11 334 callgsubr
          -31 9 24 -15 41 hhcurveto
          96 callsubr
          176 -426 124 callsubr
        </CharString>
        <CharString name="dvKHx_R">
          113 callsubr
          650 -344 -32 callgsubr
          -18 318 123 callgsubr
        </CharString>
        <CharString name="dvKHx_RA">
          627 887 -253 -32 callgsubr
          495 757 rmoveto
          -1402 -59 445 -239 hlineto
          -25 -6 -7 -26 vhcurveto
          -139 164 -167 -379 -7 callgsubr
        </CharString>
        <CharString name="dvKHx_SA">
          1391 138 callgsubr
          1411 416 rmoveto
          -180 hlineto
          -84 callsubr
          192 hlineto
          290 59 rmoveto
          -2144 -80 callgsubr
          867 vlineto
          -44 callsubr
          -7 -26 vhcurveto
          -194 137 -167 -264 186 callgsubr
          -30 callsubr
          12 10 1 2 8 hvcurveto
          -46 vlineto
          -37 callgsubr
        </CharString>
        <CharString name="dvKHx_SHA">
          1387 138 callgsubr
          -169 306 rmoveto
          258 hlineto
          68 callgsubr
          356 59 -965 -7 callsubr
        </CharString>
        <CharString name="dvKHx_TA">
          1075 138 callgsubr
          1384 699 rmoveto
          -1827 -80 callgsubr
          930 -78 -358 3 callsubr
          -196 78 callsubr
          -164 192 callsubr
          274 188 callsubr
          -46 242 callsubr
          236 -426 166 105 callgsubr
        </CharString>
        <CharString name="dvKHx_VA">
          1061 138 callgsubr
          1370 699 rmoveto
          -1813 -80 callgsubr
          916 116 callsubr
          -177 -107 callgsubr
          161 59 -283 80 callgsubr
          -208 vlineto
          152 callsubr
          13 11 334 callgsubr
          -31 8 25 -15 41 hhcurveto
          99 callsubr
        </CharString>
        <CharString name="dvKHx_YA">
          1289 138 callgsubr
          1309 251 -72 callgsubr
          -2041 -80 callgsubr
          773 vlineto
          -83 callgsubr
          -156 186 callgsubr
          -30 callsubr
          13 11 334 callgsubr
          -31 9 24 -15 41 hhcurveto
          268 callgsubr
        </CharString>
        <CharString name="dvK_CA">
          855 1298 171 rmoveto
          142 callgsubr
          -489 hlineto
          -67 callgsubr
          672 276 callsubr
          -1607 -59 480 226 callsubr
          -257 hlineto
          -53 -24 -24 -53 hvcurveto
          -97 callsubr
          181 hlineto
          310 callgsubr
          361 24 callsubr
        </CharString>
        <CharString name="dvK_DA">
          759 1197 485 rmoveto
          -539 hlineto
          -67 callgsubr
          571 vlineto
          166 -137 284 callsubr
          -1511 -59 480 132 callsubr
          -257 hlineto
          -53 -24 -24 -53 hvcurveto
          -97 callsubr
          147 hlineto
          -1 -6 0 -6 -6 vvcurveto
          -253 140 callsubr
        </CharString>
        <CharString name="dvK_JA">
          1104 1547 485 rmoveto
          48 callsubr
          -331 vlineto
          -67 callgsubr
          921 276 callsubr
          -1856 -59 480 226 callsubr
          -257 hlineto
          -53 -24 -24 -53 hvcurveto
          -97 callsubr
          168 41 callgsubr
        </CharString>
        <CharString name="dvK_KA">
          1111 1197 171 rmoveto
          -98 callsubr
          -489 hlineto
          -67 callgsubr
          571 vlineto
          646 hmoveto
          59 -1863 -59 480 132 callsubr
          -257 hlineto
          -53 -24 -24 -53 hvcurveto
          -97 callsubr
          154 hlineto
          -1 -6 0 -6 -6 vvcurveto
          -253 -69 callsubr
        </CharString>
        <CharString name="dvK_KHA">
          1394 1169 320 rmoveto
          -63 callsubr
          -139 197 -340 hlineto
          -67 callgsubr
          543 vlineto
          957 59 rmoveto
          -2146 -59 480 226 callsubr
          -257 hlineto
          -53 -24 -24 -53 hvcurveto
          -97 callsubr
          171 315 callgsubr
          23 -97 callgsubr
          506 59 -382 hlineto
          -26 -7 -49 callsubr
        </CharString>
        <CharString name="dvK_LA">
          1135 1578 485 rmoveto
          67 callgsubr
          -552 hlineto
          -67 callgsubr
          952 276 callsubr
          -1887 -59 480 226 callsubr
          -257 hlineto
          -53 -24 -24 -53 hvcurveto
          -97 callsubr
          151 hlineto
          -1 -6 0 -6 -6 vvcurveto
          -331 -61 callgsubr
        </CharString>
        <CharString name="dvK_MA">
          1100 1544 485 339 callsubr
          -343 -394 rmoveto
          -63 callsubr
          -169 -107 callgsubr
          201 hlineto
          59 vmoveto
          -543 hlineto
          -67 callgsubr
          575 vlineto
          630 59 rmoveto
          -1851 -59 480 226 callsubr
          -257 hlineto
          -53 -24 -24 -53 hvcurveto
          -97 callsubr
          152 hlineto
          -1 -6 0 -6 -6 vvcurveto
          9 callgsubr
        </CharString>
        <CharString name="dvK_NA">
          1085 1529 485 rmoveto
          -871 hlineto
          -67 callgsubr
          903 vlineto
          -328 -394 rmoveto
          -25 44 callgsubr
          -168 -107 callgsubr
          201 hlineto
          617 196 rmoveto
          -1838 -59 480 226 callsubr
          -257 hlineto
          -53 -24 -24 -53 hvcurveto
          -97 callsubr
          147 hlineto
          -1 -6 0 -6 -6 vvcurveto
          -253 123 callsubr
        </CharString>
        <CharString name="dvK_NNA">
          1103 1204 169 -24 callgsubr
          -546 -78 177 callsubr
          188 -78 vlineto
          1021 137 rmoveto
          -1855 -59 480 226 callsubr
          -257 hlineto
          -53 -24 -24 -53 hvcurveto
          -97 callsubr
          154 198 callgsubr
          249 callgsubr
        </CharString>
        <CharString name="dvK_PA">
          780 1224 -42 callsubr
          -566 -78 177 callsubr
          198 -78 vlineto
          689 137 rmoveto
          -1533 -59 480 226 callsubr
          -257 hlineto
          -53 -24 -24 -53 hvcurveto
          -97 callsubr
          164 -271 93 callsubr
        </CharString>
        <CharString name="dvK_PHA">
          1141 1224 -42 callsubr
          -566 -78 177 callsubr
          198 -78 vlineto
          1049 78 rmoveto
          59 -1893 -59 480 132 callsubr
          -257 hlineto
          -53 -24 -24 -53 hvcurveto
          -97 callsubr
          164 198 callgsubr
          291 hlineto
          14 11 3 6 7 hvcurveto
          -87 -96 callsubr
        </CharString>
        <CharString name="dvK_P_RA">
          781 1224 28 callgsubr
          -566 -78 177 callsubr
          198 -78 vlineto
          689 137 rmoveto
          -1533 -59 480 226 callsubr
          -257 hlineto
          -53 -24 -24 -53 hvcurveto
          -97 callsubr
          164 -231 102 callsubr
        </CharString>
        <CharString name="dvK_R">
          29 660 485 61 callsubr
        </CharString>
        <CharString name="dvK_RA">
          376 1108 563 rmoveto
          59 -1128 -59 481 -383 vlineto
          -26 -8 -8 -26 vhcurveto
          -151 hlineto
          -26 -6 7 25 hvcurveto
          216 vlineto
          25 6 7 26 vhcurveto
          135 59 -257 hlineto
          -53 -24 -24 -53 hvcurveto
          -244 -23 callgsubr
        </CharString>
        <CharString name="dvK_SA">
          1104 1547 339 rmoveto
          -180 hlineto
          -84 callsubr
          192 hlineto
          -345 -192 220 callsubr
          635 91 rmoveto
          -1857 -59 480 226 callsubr
          -257 hlineto
          -53 -24 -24 -53 hvcurveto
          -97 callsubr
          148 15 callsubr
          -166 -123 vlineto
          -25 -7 13 callsubr
        </CharString>
        <CharString name="dvK_SHA">
          1120 888 622 245 callsubr
          -60 -153 vlineto
          -67 callgsubr
          64 59 -710 -59 480 132 callsubr
          -257 hlineto
          -53 -24 -24 -53 hvcurveto
          -97 callsubr
          317 105 hlineto
          25 7 187 callsubr
          -176 -61 callsubr
          -192 45 -166 -291 hlineto
          -107 callsubr
          399 -95 callgsubr
          121 -166 -107 -61 callsubr
          -155 hlineto
          -26 -7 -96 callgsubr
          173 314 vlineto
          -74 callgsubr
          204 -43 callgsubr
          544 276 callgsubr
          112 callsubr
        </CharString>
        <CharString name="dvK_SS">
          23 285 530 rmoveto
          19 callsubr
          135 43 callsubr
          -137 185 callgsubr
          -134 hlineto
          -26 -8 6 26 hvcurveto
          632 -91 rmoveto
          59 -286 vlineto
          -52 callsubr
          endchar
        </CharString>
        <CharString name="dvK_SSA">
          381 486 393 42 callsubr
          627 92 rmoveto
          -289 -261 -193 hlineto
          -52 callsubr
          560 -302 112 callsubr
        </CharString>
        <CharString name="dvK_SS_MA">
          1103 1547 485 339 callsubr
          -343 -394 -10 callsubr
          -718 -33 42 callsubr
          1349 92 rmoveto
          -1067 -59 436 197 callgsubr
          -47 -183 vlineto
          -52 callsubr
          550 -147 hlineto
          -107 callsubr
          96 callsubr
          176 127 callgsubr
          vlineto
          endchar
        </CharString>
        <CharString name="dvK_SS_M_YA">
          1734 2177 174 -105 callsubr
          -973 -394 -10 callsubr
          -718 -33 42 callsubr
          1980 92 rmoveto
          -1696 -59 434 197 callgsubr
          -47 -183 vlineto
          -52 callsubr
          550 -147 hlineto
          -107 callsubr
          96 callsubr
          170 59 -170 78 436 vlineto
          -94 callsubr
          123 vlineto
          endchar
        </CharString>
        <CharString name="dvK_SS_VA">
          786 486 393 42 callsubr
          1032 92 rmoveto
          -755 -59 466 92 callsubr
          -47 -188 vlineto
          -52 callsubr
          555 -147 hlineto
          11 callgsubr
          300 -45 callgsubr
        </CharString>
        <CharString name="dvK_SS_YA">
          997 1441 174 308 callgsubr
          136 222 vlineto
          -74 callgsubr
          148 210 callgsubr
          -955 -167 rmoveto
          168 callgsubr
          -134 hlineto
          -26 -8 6 26 hvcurveto
          134 -5 callsubr
          135 43 callsubr
          1243 92 rmoveto
          -972 -59 314 hlineto
          -56 callgsubr
          -135 -85 callgsubr
          -440 hlineto
          10 6 5 12 21 vvcurveto
          142 305 callgsubr
          -367 hlineto
          -53 -24 -23 -53 hvcurveto
          -142 vlineto
          -21 5 -12 10 -6 vhcurveto
          -1 hlineto
          -54 -21 -29 -49 hvcurveto
          -131 -14 callsubr
          306 150 callgsubr
          225 -167 -51 262 callsubr
          -181 10 callsubr
          104 -5 callsubr
          540 -150 238 callsubr
        </CharString>
        <CharString name="dvK_S_DDA">
          1487 1636 300 callsubr
          -177 -35 callgsubr
          560 -78 hlineto
          -714 -114 rmoveto
          -63 callsubr
          -194 137 -1 9 -331 hlineto
          -67 callgsubr
          558 vlineto
          -56 callgsubr
          881 -105 329 callsubr
          -2239 -59 480 132 callsubr
          -257 hlineto
          -53 -24 -24 -53 hvcurveto
          -97 callsubr
          163 -44 callgsubr
          580 vlineto
          -19 12 22 -9 32 hhcurveto
          -71 callgsubr
        </CharString>
        <CharString name="dvK_S_P_LA">
          2265 2708 485 rmoveto
          67 callgsubr
          -323 145 callgsubr
          -161 198 callsubr
          995 vlineto
          -1341 -224 rmoveto
          -84 callsubr
          196 -224 hlineto
          -349 32 220 callsubr
          1795 91 rmoveto
          -3017 -59 480 226 callsubr
          -257 hlineto
          -53 -24 -24 -53 hvcurveto
          -97 callsubr
          148 15 callsubr
          -166 -123 vlineto
          -25 -7 247 callgsubr
          282 188 callsubr
          -4 147 callsubr
          185 78 callgsubr
        </CharString>
        <CharString name="dvK_S_P_RA">
          1529 1972 28 callgsubr
          -591 -224 rmoveto
          -84 callsubr
          203 -224 hlineto
          -357 32 125 callgsubr
          1046 91 rmoveto
          -2281 -59 480 226 callsubr
          -257 hlineto
          -53 -24 -24 -53 hvcurveto
          -97 callsubr
          162 -44 callgsubr
          583 -85 103 callgsubr
        </CharString>
        <CharString name="dvK_S_TA">
          1556 2001 485 rmoveto
          -358 -19 callgsubr
          -69 -185 -35 callgsubr
          632 hlineto
          -786 -192 125 callgsubr
          1074 91 rmoveto
          -2309 -59 480 226 callsubr
          -257 hlineto
          -53 -24 -24 -53 hvcurveto
          -97 callsubr
          162 -44 callgsubr
          577 172 callgsubr
        </CharString>
        <CharString name="dvK_S_TTA">
          1508 1643 300 callsubr
          -185 -35 callgsubr
          571 -78 hlineto
          -725 -114 125 callgsubr
          891 -105 284 callgsubr
          -2260 -59 480 132 callsubr
          -257 hlineto
          -53 -24 -24 -53 hvcurveto
          -97 callsubr
          162 -44 callgsubr
          577 -203 -67 callsubr
        </CharString>
        <CharString name="dvK_TA">
          422 1154 563 rmoveto
          59 -1174 -59 512 -78 -470 -59 82 340 callsubr
          -316 -105 callgsubr
          257 59 -135 -102 callsubr
          303 vlineto
          24 5 7 24 1 vhcurveto
          205 202 callgsubr
          392 hlineto
          -2 callgsubr
          167 -47 callsubr
          -303 vlineto
          -25 -6 181 callsubr
          331 -43 callgsubr
          -291 -35 callsubr
        </CharString>
        <CharString name="dvK_THA">
          1069 1801 622 88 callsubr
          25 24 53 hvcurveto
          171 vlineto
          53 -25 -2 callsubr
          -381 -19 callgsubr
          -60 -162 vlineto
          -67 callgsubr
          69 59 -715 -59 480 132 callsubr
          -257 hlineto
          -53 -24 -24 -53 hvcurveto
          -97 callsubr
          324 105 hlineto
          -95 callsubr
          142 114 callsubr
          -343 126 callsubr
          587 -45 callgsubr
        </CharString>
        <CharString name="dvK_TTA">
          754 1186 485 rmoveto
          -528 hlineto
          -67 callgsubr
          560 vlineto
          166 -137 284 callgsubr
          -1506 -59 480 132 callsubr
          -257 hlineto
          -53 -24 -24 -53 hvcurveto
          -97 callsubr
          153 hlineto
          -1 -6 0 -6 -6 vvcurveto
          -331 -67 callsubr
        </CharString>
        <CharString name="dvK_T_RA">
          825 1269 289 rmoveto
          -53 hlineto
          -132 137 rlineto
          51 -51 -43 8 -76 hhcurveto
          -256 hlineto
          -67 callgsubr
          643 vlineto
          294 callgsubr
          -1577 -59 480 226 callsubr
          -257 hlineto
          -53 -24 -24 -53 hvcurveto
          -97 callsubr
          154 hlineto
          44 38 -6 -41 42 hvcurveto
          125 -128 -259 269 callsubr
          51 -215 111 callsubr
        </CharString>
        <CharString name="dvK_T_VA">
          1192 1636 171 rmoveto
          -79 callgsubr
          -928 hlineto
          -67 callgsubr
          1010 276 callsubr
          -1945 -59 480 226 callsubr
          -257 hlineto
          -53 -24 -24 -53 hvcurveto
          -97 callsubr
          150 hlineto
          -1 -6 0 -6 -6 vvcurveto
          -331 242 callsubr
          219 hlineto
          -12 callgsubr
        </CharString>
        <CharString name="dvK_T_YA">
          1472 1916 174 -6 callsubr
          -2224 -59 480 226 callsubr
          -257 hlineto
          -53 -24 -24 -53 hvcurveto
          -97 callsubr
          157 hlineto
          -1 -6 0 -6 -6 vvcurveto
          -331 vlineto
          -53 24 259 callgsubr
          263 59 -620 hlineto
          -67 callgsubr
          919 vlineto
          16 callgsubr
        </CharString>
        <CharString name="dvK_VA">
          774 1217 171 rmoveto
          -79 callgsubr
          -509 hlineto
          -67 callgsubr
          591 276 callsubr
          -1526 -59 480 226 callsubr
          -257 hlineto
          -53 -24 -24 -53 hvcurveto
          -97 callsubr
          148 hlineto
          -12 callgsubr
        </CharString>
        <CharString name="dvK_V_YA">
          1439 1882 174 -105 callsubr
          -881 -426 rmoveto
          -106 callgsubr
          160 59 -503 hlineto
          -67 callgsubr
          886 215 callgsubr
          -2191 -59 480 226 callsubr
          -257 hlineto
          -53 -24 -24 -53 hvcurveto
          -97 callsubr
          142 hlineto
          182 callsubr
          336 -19 callsubr
          123 vlineto
          endchar
        </CharString>
        <CharString name="dvK_YA">
          1002 1446 174 -72 callgsubr
          -1755 -59 480 226 callsubr
          -257 hlineto
          -53 -24 -24 -53 hvcurveto
          -97 callsubr
          149 59 -151 hlineto
          -67 callgsubr
          450 vlineto
          -94 callsubr
          123 vlineto
          endchar
        </CharString>
        <CharString name="dvKx">
          30 97 -105 -32 callgsubr
          561 472 177 callsubr
          191 59 -837 -59 480 132 callsubr
          -257 hlineto
          -53 -24 -24 -53 hvcurveto
          -97 callsubr
          254 59 hlineto
          endchar
        </CharString>
        <CharString name="dvKxA">
          374 125 -105 -32 callgsubr
          981 550 rmoveto
          59 -1126 -59 480 132 callsubr
          -257 hlineto
          -53 -24 -24 -53 hvcurveto
          -253 -69 callsubr
        </CharString>
        <CharString name="dvKx_BA">
          847 97 -105 -32 callgsubr
          900 413 rmoveto
          248 59 -587 hlineto
          -67 callgsubr
          664 -246 vlineto
          293 callgsubr
          -290 -46 47 callgsubr
          -1599 -59 480 226 callsubr
          -257 hlineto
          -53 -24 -24 -53 hvcurveto
          -97 callsubr
          153 191 callgsubr
        </CharString>
        <CharString name="dvKx_KxA">
          1120 97 -105 -32 callgsubr
          774 -118 -32 callgsubr
          335 158 rmoveto
          -98 callsubr
          -498 hlineto
          -67 callgsubr
          580 vlineto
          646 hmoveto
          59 -1872 -59 480 132 callsubr
          -257 hlineto
          -53 -24 -24 -53 hvcurveto
          -97 callsubr
          163 hlineto
          -1 -6 0 -6 -6 vvcurveto
          -253 -69 callsubr
        </CharString>
        <CharString name="dvKx_MA">
          1093 97 -105 -32 callgsubr
          1441 472 339 callsubr
          -343 -394 rmoveto
          -63 callsubr
          -169 -107 callgsubr
          201 hlineto
          59 vmoveto
          -537 hlineto
          -67 callgsubr
          569 vlineto
          630 59 rmoveto
          -1845 -59 480 226 callsubr
          -257 hlineto
          -53 -24 -24 -53 hvcurveto
          -97 callsubr
          146 hlineto
          -1 -6 0 -6 -6 vvcurveto
          9 callgsubr
        </CharString>
        <CharString name="dvKx_PHA">
          1147 97 -105 -32 callgsubr
          1134 158 -60 callsubr
          -573 -78 177 callsubr
          205 -78 vlineto
          1049 78 rmoveto
          59 -1900 -59 480 132 callsubr
          -257 hlineto
          -53 -24 -24 -53 hvcurveto
          -97 callsubr
          171 198 callgsubr
          291 hlineto
          14 11 3 6 7 hvcurveto
          -87 -96 callsubr
        </CharString>
        <CharString name="dvKx_PHxA">
          1147 97 -116 rmoveto
          164 117 -164 hlineto
          754 -106 -32 callgsubr
          380 158 -60 callsubr
          -573 -78 177 callsubr
          205 -78 vlineto
          1049 78 rmoveto
          59 -1900 -59 480 132 callsubr
          -257 hlineto
          -53 -24 -24 -53 hvcurveto
          -97 callsubr
          171 198 callgsubr
          291 hlineto
          14 11 3 6 7 hvcurveto
          -87 -96 callsubr
        </CharString>
        <CharString name="dvKx_R">
          29 297 -253 -32 callgsubr
          363 620 61 callsubr
        </CharString>
        <CharString name="dvKx_RA">
          376 297 -253 -32 callgsubr
          811 698 rmoveto
          59 -1128 -59 481 -383 vlineto
          -26 -8 -8 -26 vhcurveto
          -151 hlineto
          -26 -6 7 25 hvcurveto
          216 vlineto
          25 6 7 26 vhcurveto
          135 59 -257 hlineto
          -53 -24 -24 -53 hvcurveto
          -244 -23 callgsubr
        </CharString>
        <CharString name="dvKx_TA">
          801 97 -105 -32 callgsubr
          1149 472 rmoveto
          -588 hlineto
          -67 callgsubr
          620 vlineto
          294 callgsubr
          -1554 -59 480 226 callsubr
          -257 hlineto
          -53 -24 -24 -53 hvcurveto
          -97 callsubr
          152 hlineto
          -30 callgsubr
        </CharString>
</ttFont>
